<svg xmlns="http://www.w3.org/2000/svg" viewBox="0 0 288 288"><defs><style>.cls-1{fill:#87d7f5;}.cls-2{fill:#59aa5f;}.cls-3{fill:#ebe4dd;}.cls-12,.cls-4,.cls-9{fill:none;}.cls-4{stroke:#ebe4dd;stroke-width:8px;}.cls-12,.cls-4{stroke-linecap:round;}.cls-4,.cls-9{stroke-miterlimit:10;}.cls-5{fill:#7f7f7f;}.cls-6{fill:#646464;}.cls-7{fill:#f4c48b;}.cls-8{fill:#f95e5a;}.cls-9{stroke:#f7931e;stroke-width:7px;}.cls-10{fill:#fbb03b;}.cls-11{fill:#f7931e;}.cls-12{stroke:#f4c48b;stroke-linejoin:round;stroke-width:16px;}.cls-13{fill:#ea5050;}.cls-14{fill:#ce9666;}</style></defs><g id="background"><rect class="cls-1" width="288" height="239.06"/><circle class="cls-2" cx="28.37" cy="242.47" r="37.89"/><circle class="cls-2" cx="152.42" cy="239.06" r="32.35"/><circle class="cls-2" cx="248.67" cy="236.09" r="32.35"/><circle class="cls-2" cx="203.36" cy="246.1" r="25.31"/><circle class="cls-2" cx="281.02" cy="239.06" r="25.31"/><circle class="cls-2" cx="92.36" cy="229.09" r="44.28"/><path class="cls-3" d="M93.8,27.38h0a5.89,5.89,0,0,1,5.89-5.89h6.57a5.89,5.89,0,0,0,5.89-5.89h0a5.88,5.88,0,0,0-5.89-5.89h-87a5.89,5.89,0,0,0-5.9,5.89h0a5.89,5.89,0,0,1-5.89,5.89H.91A5.89,5.89,0,0,0-5,27.38h0A5.89,5.89,0,0,0,.91,33.27h12a5.89,5.89,0,0,1,5.89,5.89h0a5.89,5.89,0,0,1-5.89,5.89h-15A5.89,5.89,0,0,0-8,50.94h0a5.89,5.89,0,0,0,5.89,5.89h87a5.89,5.89,0,0,0,5.89-5.89h0a5.89,5.89,0,0,1,5.89-5.89h15a5.89,5.89,0,0,0,5.89-5.89h0a5.89,5.89,0,0,0-5.89-5.89h-12A5.89,5.89,0,0,1,93.8,27.38Z"/><path class="cls-3" d="M298.06,66.17h0a5.6,5.6,0,0,1,5.6-5.6h12.8a5.61,5.61,0,0,0,5.6-5.61v-.57a5.6,5.6,0,0,0-5.6-5.6h-3.58a5.61,5.61,0,0,1-5.61-5.61v-.57a5.61,5.61,0,0,0-5.6-5.61H214.1a5.61,5.61,0,0,0-5.61,5.61v.57a5.61,5.61,0,0,0,5.61,5.61h3.58a5.6,5.6,0,0,1,5.6,5.6h0a5.6,5.6,0,0,1-5.6,5.6H204.89a5.61,5.61,0,0,0-5.61,5.61v.57a5.6,5.6,0,0,0,5.61,5.6h22.89a5.61,5.61,0,0,1,5.61,5.61V78a5.61,5.61,0,0,0,5.6,5.61h87.57A5.61,5.61,0,0,0,332.17,78v-.57a5.61,5.61,0,0,0-5.61-5.61h-22.9A5.6,5.6,0,0,1,298.06,66.17Z"/></g><g id="hiker"><line id="pole" class="cls-4" x1="185.25" y1="88.62" x2="216.69" y2="234.94"/><g id="pants"><path class="cls-3" d="M134,220.13a109.79,109.79,0,0,1-13.4-6.43c1.29-3.59,2.19-7.3,3.14-11,4.67,2,9.34,3.88,14.1,5.6C136.5,212.24,135.15,216.14,134,220.13Z"/><path class="cls-5" d="M142.11,240.77c-14.73-1.25-18-3.26-30-11.32a97.39,97.39,0,0,0,8.52-15.77c4.48,2.9,10,4.67,14.56,7.12,5.29,2.83,6.44,5.55,7.53,11.51C143.2,234.69,142.18,238.21,142.11,240.77Z"/><path class="cls-6" d="M147.67,184.3c-5.32-1.47-10.7-3.3-16-4.69.65-7.5,1.46-13,1-21.2s1.35-14.25,1.71-21.54c9.66.11,20.49-.25,29.7.14-3.59,7.71-9.14,15.53-12.13,23.41S150.17,176.38,147.67,184.3Z"/><path class="cls-7" d="M137.84,208.31c-4.76-1.72-9.43-3.64-14.1-5.6a137.7,137.7,0,0,1,7.84-23.23c5.39,1.63,10.76,3.3,16.16,4.86C144.15,192.26,140.75,200.08,137.84,208.31Z"/><path class="cls-3" d="M183.84,220.07c-5.41.39-10.84.72-16.21.72.29-3.62.51-7.25.6-10.88,5.4-1.07,10.81-1,16.21-2.14C184.42,211.89,184,216,183.84,220.07Z"/><path class="cls-5" d="M195.06,238.91c-9.54.43-19,.7-28.56,1.1,0-6.12.54-13.14,1.17-19.26,5.65-.34,12.19-1.07,17.68-.58,6.34.57,8.1,4.23,9.4,10.11C195.28,232.63,194.72,236.35,195.06,238.91Z"/><path class="cls-5" d="M181.73,182.81c-5.15,1.86-10.55,3.41-15.71,5.18a128.51,128.51,0,0,0-8-14.41c-1.54-2.28-3-4.1-6-7.67-9.44-11.62-12.28-13.62-15-19.58a38.25,38.25,0,0,1-2.78-9.45c5.12-.11,10.33-.1,15.61-.17,5-.05,9.71-.07,14.09.11a93.73,93.73,0,0,0,5.68,22.67C172.74,167.3,179,174.63,181.73,182.81Z"/><path class="cls-7" d="M184.44,207.77c-5.4,1.09-10.81,1.07-16.21,2.14,0-7.83-.34-14.58-2.44-22.14,5.31-1.66,10.6-3.33,15.87-5.14C183.87,190.9,184.44,199.22,184.44,207.77Z"/></g><g id="torso"><path class="cls-8" d="M155.87,60.85h0a15.68,15.68,0,0,0-15.55,15.8l-6,61.23h31.1l6-61.23A15.67,15.67,0,0,0,155.87,60.85Z"/></g><g id="backpack"><path class="cls-9" d="M140,62.44c1.86-.3,13.5-5,20.34,2.31,3.72,4,4.32,8.88,4.58,11,2.52,20.52-27.73,47.25-30.73,49.85"/><path class="cls-10" d="M128.84,143.22l-17.28-.05a6.09,6.09,0,0,1-6-6.85L113,52.08a7.46,7.46,0,0,1,7.21-6.81l17.28,0a6.08,6.08,0,0,1,6,6.84l-7.41,84.25A7.46,7.46,0,0,1,128.84,143.22Z"/><path class="cls-11" d="M114.32,111.68l17.29,0a6.08,6.08,0,0,1,6,6.84l-1.57,17.84a7.46,7.46,0,0,1-7.21,6.81l-17.28-.05a6.09,6.09,0,0,1-6-6.85l1.57-17.83A7.46,7.46,0,0,1,114.32,111.68Z"/></g><g id="arm"><polyline class="cls-12" points="152.24 99.74 153.93 113.63 192.07 106.68"/><path class="cls-13" d="M152.24,65.88h0A8.76,8.76,0,0,1,161,74.64v25.1a0,0,0,0,1,0,0H143.49a0,0,0,0,1,0,0V74.64A8.76,8.76,0,0,1,152.24,65.88Z"/></g><g id="head"><circle class="cls-7" cx="158.75" cy="35.6" r="17.72"/></g></g><g id="foreground"><rect class="cls-14" y="239.06" width="288" height="48.94"/></g></svg>