<svg xmlns="http://www.w3.org/2000/svg" xmlns:xlink="http://www.w3.org/1999/xlink" viewBox="0 0 288 288"><defs><style>.cls-1,.cls-13,.cls-16,.cls-29,.cls-4,.cls-7{fill:none;}.cls-2{fill:#83e8ff;}.cls-3{fill:#666;}.cls-4{stroke:#e6e6e6;}.cls-10,.cls-11,.cls-13,.cls-16,.cls-4,.cls-7{stroke-miterlimit:10;stroke-width:4px;}.cls-5{fill:#e6e6e6;}.cls-6{fill:#938493;}.cls-10,.cls-7{stroke:#9dc6fb;}.cls-10,.cls-11,.cls-13,.cls-16,.cls-29,.cls-7{stroke-linecap:round;}.cls-8{clip-path:url(#clip-path);}.cls-9{fill:#29abe2;}.cls-10{fill:#9dc6fb;}.cls-11,.cls-15{fill:#d9d2cc;}.cls-11,.cls-16{stroke:#d9d2cc;}.cls-12{fill:#d6c8b6;}.cls-13{stroke:#bfa993;}.cls-14{fill:#bfa993;}.cls-17{fill:#00a99d;}.cls-18{fill:#333;}.cls-19{fill:#39b54a;}.cls-20{fill:#f7931e;}.cls-21{fill:#fff;}.cls-22{fill:#fbb03b;}.cls-23{clip-path:url(#clip-path-2);}.cls-24{fill:#ebe4dd;}.cls-25{fill:#7f7f7f;}.cls-26{fill:#646464;}.cls-27{fill:#f4c48b;}.cls-28{fill:#f95e5a;}.cls-29{stroke:#f4c48b;stroke-linejoin:round;stroke-width:16px;}.cls-30{fill:#ea5050;}</style><clipPath id="clip-path"><rect id="SVGID" class="cls-1" y="0.22" width="288" height="288"/></clipPath><clipPath id="clip-path-2"><rect class="cls-1" x="156.88" y="52.89" width="87.92" height="218.88"/></clipPath></defs><g id="background"><rect id="sky" class="cls-2" y="0.22" width="288" height="153.8"/><g id="road"><rect class="cls-3" y="166.91" width="288" height="121.32"/><line class="cls-4" y1="240.04" x2="49.21" y2="240.04"/><line class="cls-4" x1="73.94" y1="240.04" x2="132.3" y2="240.04"/><line class="cls-4" x1="157.04" y1="240.04" x2="215.39" y2="240.04"/><line class="cls-4" x1="240.13" y1="240.04" x2="288" y2="240.04"/><rect class="cls-5" y="150.61" width="288" height="16.29"/></g><polygon class="cls-6" points="145.23 150.61 88.77 150.61 88.77 68.34 145.23 40.34 145.23 150.61"/><line class="cls-7" x1="111.91" y1="65.38" x2="111.91" y2="72.29"/><line class="cls-7" x1="122.09" y1="65.38" x2="122.09" y2="72.29"/><line class="cls-7" x1="132.28" y1="65.38" x2="132.28" y2="72.29"/><line class="cls-7" x1="101.72" y1="82.98" x2="101.72" y2="89.9"/><line class="cls-7" x1="111.91" y1="82.98" x2="111.91" y2="89.9"/><line class="cls-7" x1="122.09" y1="82.98" x2="122.09" y2="89.9"/><line class="cls-7" x1="132.28" y1="82.98" x2="132.28" y2="89.9"/><line class="cls-7" x1="101.72" y1="100.59" x2="101.72" y2="107.5"/><line class="cls-7" x1="111.91" y1="100.59" x2="111.91" y2="107.5"/><line class="cls-7" x1="122.09" y1="100.59" x2="122.09" y2="107.5"/><line class="cls-7" x1="132.28" y1="100.59" x2="132.28" y2="107.5"/><line class="cls-7" x1="101.72" y1="118.19" x2="101.72" y2="125.1"/><line class="cls-7" x1="111.91" y1="118.19" x2="111.91" y2="125.1"/><line class="cls-7" x1="122.09" y1="118.19" x2="122.09" y2="125.1"/><line class="cls-7" x1="132.28" y1="118.19" x2="132.28" y2="125.1"/><line class="cls-7" x1="101.72" y1="135.79" x2="101.72" y2="142.7"/><line class="cls-7" x1="111.91" y1="135.79" x2="111.91" y2="142.7"/><line class="cls-7" x1="122.09" y1="135.79" x2="122.09" y2="142.7"/><line class="cls-7" x1="132.28" y1="135.79" x2="132.28" y2="142.7"/><g class="cls-8"><path class="cls-9" d="M0,13.81H56.31a5.08,5.08,0,0,1,5.08,5.08V150.61a0,0,0,0,1,0,0H0a0,0,0,0,1,0,0V13.81A0,0,0,0,1,0,13.81Z"/><line class="cls-10" x1="-2.66" y1="27.45" x2="49.21" y2="27.45"/><line class="cls-10" x1="-2.66" y1="43.42" x2="49.21" y2="43.42"/><line class="cls-10" x1="-2.66" y1="59.39" x2="49.21" y2="59.39"/><line class="cls-10" x1="-2.66" y1="75.36" x2="49.21" y2="75.36"/><line class="cls-10" x1="-2.66" y1="91.33" x2="49.21" y2="91.33"/><line class="cls-10" x1="-2.66" y1="107.3" x2="49.21" y2="107.3"/><line class="cls-10" x1="-2.66" y1="123.27" x2="49.21" y2="123.27"/><line class="cls-10" x1="-2.66" y1="139.24" x2="49.21" y2="139.24"/><line class="cls-11" x1="274.02" y1="11.65" x2="274.02" y2="55.02"/><circle class="cls-12" cx="274.02" cy="69.56" r="37.92"/><line class="cls-13" x1="243.98" y1="62.77" x2="243.98" y2="66.25"/><line class="cls-13" x1="255.99" y1="62.77" x2="255.99" y2="66.25"/><line class="cls-13" x1="268.01" y1="62.77" x2="268.01" y2="66.25"/><line class="cls-13" x1="280.03" y1="62.77" x2="280.03" y2="66.25"/><rect class="cls-14" x="167.94" y="73.31" width="212.16" height="63.66"/><rect class="cls-15" x="161.73" y="69.56" width="224.59" height="11.03"/><rect class="cls-15" x="161.73" y="132.17" width="224.59" height="18.44"/><line class="cls-16" x1="178.87" y1="84.8" x2="178.87" y2="128.17"/><line class="cls-16" x1="193.51" y1="84.8" x2="193.51" y2="128.17"/><line class="cls-16" x1="208.15" y1="84.8" x2="208.15" y2="128.17"/><line class="cls-16" x1="222.79" y1="84.8" x2="222.79" y2="128.17"/><line class="cls-16" x1="237.42" y1="84.8" x2="237.42" y2="128.17"/><line class="cls-16" x1="252.06" y1="84.8" x2="252.06" y2="128.17"/><line class="cls-16" x1="266.7" y1="84.8" x2="266.7" y2="128.17"/><line class="cls-16" x1="281.34" y1="84.8" x2="281.34" y2="128.17"/></g><path class="cls-17" d="M50.94,56.63H89.06a5,5,0,0,1,5,5v89a0,0,0,0,1,0,0H45.94a0,0,0,0,1,0,0v-89A5,5,0,0,1,50.94,56.63Z"/><line class="cls-7" x1="54.72" y1="62.73" x2="54.72" y2="144.51"/><line class="cls-7" x1="64.91" y1="62.73" x2="64.91" y2="144.51"/><line class="cls-7" x1="75.09" y1="62.73" x2="75.09" y2="144.51"/><line class="cls-7" x1="85.28" y1="62.73" x2="85.28" y2="144.51"/><circle class="cls-18" cx="76.74" cy="201.32" r="12.69"/><circle class="cls-18" cx="121.58" cy="201.32" r="12.69"/><circle class="cls-18" cx="211.26" cy="201.32" r="12.69"/><circle class="cls-18" cx="166.42" cy="201.32" r="12.69"/><rect class="cls-19" x="53.56" y="103.8" width="180.88" height="97.52" rx="8"/><path class="cls-20" d="M53.56,160.57H234.44a0,0,0,0,1,0,0v32.75a8,8,0,0,1-8,8H61.56a8,8,0,0,1-8-8V160.57A0,0,0,0,1,53.56,160.57Z"/><rect class="cls-21" x="61.39" y="118.45" width="53.43" height="36.76" rx="6.06"/><rect class="cls-21" x="131.12" y="118.45" width="53.43" height="36.76" rx="6.06"/><rect class="cls-21" x="200.84" y="118.45" width="33.6" height="36.76" rx="6.06"/><path class="cls-22" d="M173.24,95.72h25.33a6.82,6.82,0,0,1,6.82,6.82v1.26a0,0,0,0,1,0,0h-39a0,0,0,0,1,0,0v-1.26A6.82,6.82,0,0,1,173.24,95.72Z"/></g><g id="hiker"><g id="torso"><g id="person_walking" data-name="person walking"><g class="cls-23"><g class="cls-23"><path class="cls-24" d="M178.73,251.14a112.81,112.81,0,0,1-13.4-6.43c1.29-3.59,2.19-7.3,3.14-11,4.67,2,9.34,3.89,14.1,5.61-1.34,3.92-2.69,7.82-3.84,11.82"/><path class="cls-25" d="M186.84,271.77c-14.74-1.24-18-3.26-30-11.32a98.17,98.17,0,0,0,8.52-15.77c4.48,2.91,10,4.67,14.55,7.12,5.3,2.84,6.45,5.56,7.54,11.52.44,2.38-.58,5.89-.65,8.45"/><path class="cls-26" d="M192.4,215.31c-5.32-1.47-10.7-3.3-16-4.69.65-7.51,1.45-13,.94-21.21s1.36-14.24,1.72-21.53c9.66.1,20.49-.26,29.7.13-3.59,7.71-9.14,15.54-12.13,23.41s-1.72,16-4.22,23.89"/><path class="cls-27" d="M182.57,239.32c-4.76-1.72-9.43-3.64-14.1-5.61a137.9,137.9,0,0,1,7.84-23.22c5.39,1.62,10.76,3.29,16.16,4.85-3.6,7.93-7,15.75-9.9,24"/><path class="cls-24" d="M228.57,251.07c-5.41.4-10.84.72-16.22.72.3-3.62.52-7.24.61-10.88,5.4-1.06,10.81-1,16.21-2.14,0,4.12-.41,8.2-.6,12.3"/><path class="cls-25" d="M239.79,269.91c-9.54.44-19,.71-28.56,1.11,0-6.12.54-13.15,1.17-19.27,5.64-.33,12.19-1.07,17.67-.57,6.35.57,8.11,4.23,9.41,10.11.52,2.35,0,6.06.31,8.62"/><path class="cls-25" d="M226.46,213.81c-5.15,1.86-10.55,3.42-15.71,5.18a128.69,128.69,0,0,0-8-14.41c-1.54-2.28-3-4.09-5.95-7.67-9.44-11.61-12.28-13.62-14.95-19.58a37.69,37.69,0,0,1-2.78-9.45c5.12-.1,10.33-.1,15.61-.16,5-.06,9.71-.07,14.09.11a93.73,93.73,0,0,0,5.68,22.67c3,7.8,9.25,15.14,12,23.31"/><path class="cls-27" d="M229.17,238.77c-5.4,1.09-10.81,1.08-16.21,2.14,0-7.82-.34-14.57-2.44-22.13,5.31-1.67,10.6-3.34,15.87-5.15,2.21,8.28,2.78,16.6,2.78,25.14"/><path class="cls-28" d="M200.6,91.86h0a15.67,15.67,0,0,0-15.55,15.79l-6,61.24h31.1l6-61.24A15.67,15.67,0,0,0,200.6,91.86"/><polyline class="cls-29" points="196.97 130.74 198.66 144.64 236.8 137.69"/><path class="cls-30" d="M205.73,130.74H188.22V105.65a8.76,8.76,0,1,1,17.51,0Z"/><path class="cls-27" d="M221.2,70.61a17.72,17.72,0,1,1-17.72-17.72A17.73,17.73,0,0,1,221.2,70.61"/></g></g></g></g></g></svg>