<svg xmlns="http://www.w3.org/2000/svg" xmlns:xlink="http://www.w3.org/1999/xlink" viewBox="0 0 288 288"><defs><style>.cls-1{fill:none;}.cls-2{fill:#29b997;}.cls-3{fill:#fff0cd;}.cls-4{fill:#5e4f40;}.cls-5{fill:#eb3d3d;}.cls-6{fill:#fff;}.cls-7{fill:#f9d900;}.cls-8{clip-path:url(#clip-path);}.cls-9{fill:#ab8661;}.cls-11,.cls-9{opacity:0.25;}.cls-10{clip-path:url(#clip-path-2);}.cls-11{fill:#666;}.cls-12{isolation:isolate;}.cls-13{clip-path:url(#clip-path-3);}.cls-14{fill:#f2f2f2;}.cls-15{fill:#ededed;}.cls-16{fill:#e8e8e8;}.cls-17{fill:#e3e3e3;}.cls-18{fill:#dfdfdf;}.cls-19{fill:#dadada;}.cls-20{fill:#d5d5d5;}.cls-21{fill:#d0d0d0;}.cls-22{fill:#cbcbcb;}.cls-23{fill:#c6c6c6;}.cls-24{fill:#c2c2c2;}.cls-25{fill:#bdbdbd;}.cls-26{fill:#b8b8b8;}.cls-27{fill:#b3b3b3;}.cls-28{fill:#aeaeae;}.cls-29{fill:#a9a9a9;}.cls-30{fill:#a5a5a5;}.cls-31{fill:#a0a0a0;}.cls-32{fill:#9b9b9b;}.cls-33{fill:#969696;}.cls-34{fill:#919191;}.cls-35{fill:#8c8c8c;}.cls-36{fill:#888;}.cls-37{fill:#838383;}.cls-38{fill:#7e7e7e;}.cls-39{fill:#f4f4f4;}.cls-40{fill:#f5f5f5;}.cls-41{fill:#f6f6f6;}.cls-42{fill:#f7f7f7;}.cls-43{fill:#f8f8f8;}.cls-44{fill:#1abfed;}.cls-45{clip-path:url(#clip-path-4);}</style><clipPath id="clip-path"><path class="cls-1" d="M229.23,253.94H62.78a7.75,7.75,0,0,1-7.72-8.43A91.34,91.34,0,0,1,146,162.61h.81L118.15,29.9A2.52,2.52,0,0,1,123,28.84q14.46,67,28.94,134a91.34,91.34,0,0,1,85,82.7A7.74,7.74,0,0,1,229.23,253.94Z"/></clipPath><clipPath id="clip-path-2"><path class="cls-1" d="M216.7,97.49l-.19,0c-3.32-8.15-15.59-12.39-28.75-9.54s-22.59,11.76-22.26,20.56l-1.24.27c-3.33-8.15-15.6-12.39-28.75-9.54s-22.6,11.76-22.26,20.56l-.37.08c-3.33-8.15-15.6-12.38-28.77-9.54s-22.58,11.76-22.25,20.56l-.33.07A79.37,79.37,0,0,1,216.7,97.49Z"/></clipPath><clipPath id="clip-path-3"><path class="cls-1" d="M190.52,177.63c.22-.47.58-1.06.83-1.5a10.91,10.91,0,0,0-.56,1c-3.22,6.7.94,15.66,9.31,20-8.37-4.36-12.53-13.32-9.31-20a10.91,10.91,0,0,1,.56-1,15.81,15.81,0,0,1,3-3.5,15.52,15.52,0,0,1,3.89-2.53,16.9,16.9,0,0,1,4.85-1.41,17.63,17.63,0,0,1,5.16.08c.38.07,1.09.19,1.64.35a17.57,17.57,0,0,1,2.26.76h0c.43.2,1,.46,1.43.67.22.11.9.5.91.51a17.49,17.49,0,0,1,2.72,2,17.22,17.22,0,0,1,5.24,8.59,16,16,0,0,1,.45,5.18,11.73,11.73,0,0,1-.26,1.86,25.08,25.08,0,0,1-.72,2.53,15.23,15.23,0,0,1-1.36,2.73,16.23,16.23,0,0,1-1.08,1.53,17.15,17.15,0,0,1-2.86,2.77,23.31,23.31,0,0,1-2.11,1.33,13.38,13.38,0,0,1-1.89.86,15.63,15.63,0,0,1-2.68.77,18.13,18.13,0,0,1-2.35.3,17.74,17.74,0,0,1-14.84-6.59,17.09,17.09,0,0,1-3-5.5,16.27,16.27,0,0,1-.73-6.17A15.92,15.92,0,0,1,190.52,177.63Z"/></clipPath><clipPath id="clip-path-4"><path class="cls-1" d="M198.33,199.53a18,18,0,0,1-2.91-1.9,17.81,17.81,0,0,1-2.6-2.57,16.77,16.77,0,0,1-3.78-9,15.74,15.74,0,0,1,.08-3.78,16.33,16.33,0,0,1,.67-2.81,15.27,15.27,0,0,1,1.56-3.31c3.65-5.87,12.49-7.35,20.42-3.21-7.93-4.14-16.77-2.66-20.42,3.21.45-.66,1.07-1.51,1.58-2.12a12,12,0,0,1,1.28-1.29,18.77,18.77,0,0,1,2-1.54,15.5,15.5,0,0,1,2.26-1.21,16.11,16.11,0,0,1,3-1,18,18,0,0,1,2.58-.39,17.65,17.65,0,0,1,5,.35,18,18,0,0,1,7.41,3.51,18.2,18.2,0,0,1,1.93,1.8A17.42,17.42,0,0,1,221,178a16.61,16.61,0,0,1,1.67,5,15.93,15.93,0,0,1-11.23,17.82,17.2,17.2,0,0,1-4.66.72,17.54,17.54,0,0,1-4-.39A18.25,18.25,0,0,1,198.33,199.53Z"/></clipPath></defs><g id="background"><rect class="cls-2" width="288" height="288"/></g><g id="sand"><path class="cls-3" d="M229.23,253.94a7.74,7.74,0,0,0,7.72-8.43,91.34,91.34,0,0,0-181.89,0,7.75,7.75,0,0,0,7.72,8.43Z"/></g><g id="umbrella"><path class="cls-4" d="M160,200l-4.89,1.06-37-171.18A2.52,2.52,0,0,1,123,28.84Z"/><path class="cls-5" d="M216.7,97.49l-.19,0c-3.32-8.15-15.59-12.39-28.75-9.54s-22.59,11.76-22.26,20.56l-1.24.27c-3.33-8.15-15.6-12.39-28.75-9.54s-22.6,11.76-22.26,20.56l-.37.08c-3.33-8.15-15.6-12.38-28.77-9.54s-22.58,11.76-22.25,20.56l-.33.07A79.37,79.37,0,0,1,216.7,97.49Z"/><path class="cls-6" d="M165.08,108.64l-.82.18c-2.09-5.14-7.75-8.72-14.94-9.95a36.37,36.37,0,0,0-13.46.34l-.12,0-.23,0a36.84,36.84,0,0,0-12.23,5c-6.34,4.1-10.22,9.83-10,15.52,0,0,0,0,0,.07l-.1,0C103.89,77,108,39.77,122.36,36.67S155.82,65.79,165.08,108.64Z"/></g><g id="shovel"><rect class="cls-7" x="94.59" y="181.79" width="22.16" height="31.07" rx="5.64" transform="translate(-54.59 41.05) rotate(-17.55)"/><path class="cls-7" d="M101.5,158.47l-14.76,4.67c-1.54.48-1.35,3.53.29,4.6l10.86,7.15a1.36,1.36,0,0,0,2.17-.79l3.9-11.82C104.57,160.43,103,158,101.5,158.47Zm-1.36,6.72L98.21,171a.67.67,0,0,1-1.07.4l-5.37-3.53c-.81-.53-.9-2-.14-2.27l7.3-2.31C99.66,163.08,100.44,164.28,100.14,165.19Z"/><rect class="cls-7" x="98.32" y="169.67" width="3.56" height="20.08" transform="translate(-49.54 38.55) rotate(-17.55)"/><path class="cls-3" d="M83.67,215.58c6.75-4.34,12.45-10.84,16.67-12.55,6.54-2.64,11.28.09,15.75-3.45a22.18,22.18,0,0,0,6.62-8.4l3.78,27.42Z"/></g><g id="shadows"><g class="cls-8"><circle class="cls-9" cx="205.96" cy="249.07" r="108.53"/></g><g class="cls-10"><circle class="cls-11" cx="236.98" cy="119.86" r="109.9"/></g></g><g id="beachball"><g class="cls-12"><g class="cls-12"><g class="cls-13"><g class="cls-12"><path class="cls-14" d="M190.52,177.63c-3,6.41-1.64,13.43,3.54,18.79a17.69,17.69,0,0,0,18.52,4c13.75-5.21,13.91-23.87.25-30.24-6.74-3.14-16.28-2.12-21.48,5.93a10.91,10.91,0,0,0-.56,1c-3.22,6.7.94,15.66,9.31,20-8.37-4.36-12.53-13.32-9.31-20a10.91,10.91,0,0,1,.56-1c-.25.44-.61,1-.83,1.5"/><path class="cls-14" d="M190.79,177.14c-2.18,4.53-1,10.09,2.61,14.57l-.13-.73c-.49-4.81,3.83-7.92,8.07-4.15,3.86,3.44,2.25,8.32-1.74,8.65a15,15,0,0,1-2.74-.39,21.52,21.52,0,0,0,3.24,2.07,21.52,21.52,0,0,1-3.24-2.07l-.5-.17a4,4,0,0,1-3-3.21c-3.59-4.48-4.79-10-2.61-14.57a10.91,10.91,0,0,1,.56-1l-.66,1.16-.17.34-.53,1.23a16.59,16.59,0,0,0-.83,3.12l-.15,1.27a16.07,16.07,0,0,0,0,2.78l.17,1.22c.14.65.35,1.52.53,2.17l.39,1.08c.21.48.49,1.11.72,1.58l.52.92c.22.35.52.81.75,1.15l.59.77c.22.26.5.6.73.85l.62.65c.21.19.48.46.7.65l.64.54.68.53.66.45.69.44.7.39.2.11.71.35.72.32.74.28.75.25.77.23.81.19.83.16.92.12.91.08,1.06,0,1,0c.38,0,.89-.07,1.27-.12l1.08-.18c.47-.11,1.1-.26,1.56-.39l1.12-.38c.57-.24,1.33-.58,1.89-.86l1.07-.62a14.89,14.89,0,0,0,2.12-1.6l.92-.9a16.1,16.1,0,0,0,1.94-2.51l.66-1.16.17-.34.53-1.23a16.59,16.59,0,0,0,.83-3.12l.15-1.27a16.21,16.21,0,0,0,0-2.79l-.17-1.21c-.14-.66-.35-1.52-.53-2.17l-.39-1.08c-.21-.48-.49-1.11-.72-1.58l-.52-.93-.75-1.14-.59-.77c-.21-.26-.5-.6-.73-.85l-.62-.65c-.21-.19-.48-.46-.7-.65l-.64-.54c-.2-.16-.47-.38-.68-.53l-.66-.46-.69-.43-.7-.39-.2-.11-.71-.35-.72-.32-.74-.28-.75-.26-.77-.22-.81-.19-.83-.16-.92-.13-.91-.07-1.06,0-1,0c-.38,0-.89.07-1.27.12l-1.08.18c-.47.11-1.1.26-1.56.39l-1.12.37c-.57.25-1.33.59-1.89.86l-1.07.63a14.89,14.89,0,0,0-2.12,1.6l-.92.9a16.1,16.1,0,0,0-1.94,2.51,10.91,10.91,0,0,0-.56,1"/><path class="cls-15" d="M190.79,177.14c-2,4.07-1.19,9,1.6,13.19l.13-.58c3-8.8,9.65-3.45,10.83-.31,1.91,5.05-2.52,6-5.16,6.6a21.22,21.22,0,0,0,1.91,1.12,21.22,21.22,0,0,1-1.91-1.12l-.22,0a5.23,5.23,0,0,1-5.58-5.69c-2.79-4.21-3.56-9.12-1.6-13.19a10.91,10.91,0,0,1,.56-1l-.66,1.16-.17.34-.53,1.23a16.59,16.59,0,0,0-.83,3.12l-.15,1.27a16.07,16.07,0,0,0,0,2.78l.17,1.22c.14.65.35,1.52.53,2.17l.39,1.08c.21.48.49,1.11.72,1.58l.52.92c.22.35.52.81.75,1.15l.59.77c.22.26.5.6.73.85l.62.65c.21.19.48.46.7.65l.64.54.68.53.66.45.69.44.7.39.2.11.71.35.72.32.74.28.75.25.77.23.81.19.83.16.92.12.91.08,1.06,0,1,0c.38,0,.89-.07,1.27-.12l1.08-.18c.47-.11,1.1-.26,1.56-.39l1.12-.38c.57-.24,1.33-.58,1.89-.86l1.07-.62a14.89,14.89,0,0,0,2.12-1.6l.92-.9a16.1,16.1,0,0,0,1.94-2.51l.66-1.16.17-.34.53-1.23a16.59,16.59,0,0,0,.83-3.12l.15-1.27a16.21,16.21,0,0,0,0-2.79l-.17-1.21c-.14-.66-.35-1.52-.53-2.17l-.39-1.08c-.21-.48-.49-1.11-.72-1.58l-.52-.93-.75-1.14-.59-.77c-.21-.26-.5-.6-.73-.85l-.62-.65c-.21-.19-.48-.46-.7-.65l-.64-.54c-.2-.16-.47-.38-.68-.53l-.66-.46-.69-.43-.7-.39-.2-.11-.71-.35-.72-.32-.74-.28-.75-.26-.77-.22-.81-.19-.83-.16-.92-.13-.91-.07-1.06,0-1,0c-.38,0-.89.07-1.27.12l-1.08.18c-.47.11-1.1.26-1.56.39l-1.12.37c-.57.25-1.33.59-1.89.86l-1.07.63a14.89,14.89,0,0,0-2.12,1.6l-.92.9a16.1,16.1,0,0,0-1.94,2.51,10.91,10.91,0,0,0-.56,1"/><path class="cls-16" d="M190.79,177.14c-1.8,3.74-1.29,8.19,1,12.15l.24-.5c6-9.48,11.43-.37,11.88,1.73,1,4.79-4.48,6.21-4.54,6.22.25.15.51.29.77.42-.26-.13-.52-.27-.77-.42h-.08c-6.62,1.13-7.95-5.66-7.5-7.46-2.25-4-2.76-8.41-1-12.15a10.91,10.91,0,0,1,.56-1l-.66,1.16-.17.34-.53,1.23a16.59,16.59,0,0,0-.83,3.12l-.15,1.27a16.07,16.07,0,0,0,0,2.78l.17,1.22c.14.65.35,1.52.53,2.17l.39,1.08c.21.48.49,1.11.72,1.58l.52.92c.22.35.52.81.75,1.15l.59.77c.22.26.5.6.73.85l.62.65c.21.19.48.46.7.65l.64.54.68.53.66.45.69.44.7.39.2.11.71.35.72.32.74.28.75.25.77.23.81.19.83.16.92.12.91.08,1.06,0,1,0c.38,0,.89-.07,1.27-.12l1.08-.18c.47-.11,1.1-.26,1.56-.39l1.12-.38c.57-.24,1.33-.58,1.89-.86l1.07-.62a14.89,14.89,0,0,0,2.12-1.6l.92-.9a16.1,16.1,0,0,0,1.94-2.51l.66-1.16.17-.34.53-1.23a16.59,16.59,0,0,0,.83-3.12l.15-1.27a16.21,16.21,0,0,0,0-2.79l-.17-1.21c-.14-.66-.35-1.52-.53-2.17l-.39-1.08c-.21-.48-.49-1.11-.72-1.58l-.52-.93-.75-1.14-.59-.77c-.21-.26-.5-.6-.73-.85l-.62-.65c-.21-.19-.48-.46-.7-.65l-.64-.54c-.2-.16-.47-.38-.68-.53l-.66-.46-.69-.43-.7-.39-.2-.11-.71-.35-.72-.32-.74-.28-.75-.26-.77-.22-.81-.19-.83-.16-.92-.13-.91-.07-1.06,0-1,0c-.38,0-.89.07-1.27.12l-1.08.18c-.47.11-1.1.26-1.56.39l-1.12.37c-.57.25-1.33.59-1.89.86l-1.07.63a14.89,14.89,0,0,0-2.12,1.6l-.92.9a16.1,16.1,0,0,0-1.94,2.51,10.91,10.91,0,0,0-.56,1"/><path class="cls-17" d="M190.79,177.14a12.75,12.75,0,0,0,.48,11.24l.3-.46c7.32-8.72,12.56.92,12.71,3.56.19,3.07-2.36,4.61-3.87,5.53l-.23.12-.08,0-.12.1c-4.47,2.46-9.88-4.74-8.86-8.45,0-.13.11-.3.15-.43a12.75,12.75,0,0,1-.48-11.24,10.91,10.91,0,0,1,.56-1l-.66,1.16-.17.34-.53,1.23a16.59,16.59,0,0,0-.83,3.12l-.15,1.27a16.07,16.07,0,0,0,0,2.78l.17,1.22c.14.65.35,1.52.53,2.17l.39,1.08c.21.48.49,1.11.72,1.58l.52.92c.22.35.52.81.75,1.15l.59.77c.22.26.5.6.73.85l.62.65c.21.19.48.46.7.65l.64.54.68.53.66.45.69.44.7.39.2.11.71.35.72.32.74.28.75.25.77.23.81.19.83.16.92.12.91.08,1.06,0,1,0c.38,0,.89-.07,1.27-.12l1.08-.18c.47-.11,1.1-.26,1.56-.39l1.12-.38c.57-.24,1.33-.58,1.89-.86l1.07-.62a14.89,14.89,0,0,0,2.12-1.6l.92-.9a16.1,16.1,0,0,0,1.94-2.51l.66-1.16.17-.34.53-1.23a16.59,16.59,0,0,0,.83-3.12l.15-1.27a16.21,16.21,0,0,0,0-2.79l-.17-1.21c-.14-.66-.35-1.52-.53-2.17l-.39-1.08c-.21-.48-.49-1.11-.72-1.58l-.52-.93-.75-1.14-.59-.77c-.21-.26-.5-.6-.73-.85l-.62-.65c-.21-.19-.48-.46-.7-.65l-.64-.54c-.2-.16-.47-.38-.68-.53l-.66-.46-.69-.43-.7-.39-.2-.11-.71-.35-.72-.32-.74-.28-.75-.26-.77-.22-.81-.19-.83-.16-.92-.13-.91-.07-1.06,0-1,0c-.38,0-.89.07-1.27.12l-1.08.18c-.47.11-1.1.26-1.56.39l-1.12.37c-.57.25-1.33.59-1.89.86l-1.07.63a14.89,14.89,0,0,0-2.12,1.6l-.92.9a16.1,16.1,0,0,0-1.94,2.51,10.91,10.91,0,0,0-.56,1"/><path class="cls-18" d="M190.79,177.14a12.51,12.51,0,0,0,.11,10.43l.33-.44c7.3-7.46,13.21.86,13.35,4.52.11,3.1-4.34,10.51-10.66,4.33-.75-.73-4.43-4.59-3-8.41a12.51,12.51,0,0,1-.11-10.43,10.91,10.91,0,0,1,.56-1l-.66,1.16-.17.34-.53,1.23a16.59,16.59,0,0,0-.83,3.12l-.15,1.27a16.07,16.07,0,0,0,0,2.78l.17,1.22c.14.65.35,1.52.53,2.17l.39,1.08c.21.48.49,1.11.72,1.58l.52.92c.22.35.52.81.75,1.15l.59.77c.22.26.5.6.73.85l.62.65c.21.19.48.46.7.65l.64.54.68.53.66.45.69.44.7.39.2.11.71.35.72.32.74.28.75.25.77.23.81.19.83.16.92.12.91.08,1.06,0,1,0c.38,0,.89-.07,1.27-.12l1.08-.18c.47-.11,1.1-.26,1.56-.39l1.12-.38c.57-.24,1.33-.58,1.89-.86l1.07-.62a14.89,14.89,0,0,0,2.12-1.6l.92-.9a16.1,16.1,0,0,0,1.94-2.51l.66-1.16.17-.34.53-1.23a16.59,16.59,0,0,0,.83-3.12l.15-1.27a16.21,16.21,0,0,0,0-2.79l-.17-1.21c-.14-.66-.35-1.52-.53-2.17l-.39-1.08c-.21-.48-.49-1.11-.72-1.58l-.52-.93-.75-1.14-.59-.77c-.21-.26-.5-.6-.73-.85l-.62-.65c-.21-.19-.48-.46-.7-.65l-.64-.54c-.2-.16-.47-.38-.68-.53l-.66-.46-.69-.43-.7-.39-.2-.11-.71-.35-.72-.32-.74-.28-.75-.26-.77-.22-.81-.19-.83-.16-.92-.13-.91-.07-1.06,0-1,0c-.38,0-.89.07-1.27.12l-1.08.18c-.47.11-1.1.26-1.56.39l-1.12.37c-.57.25-1.33.59-1.89.86l-1.07.63a14.89,14.89,0,0,0-2.12,1.6l-.92.9a16.1,16.1,0,0,0-1.94,2.51,10.91,10.91,0,0,0-.56,1"/><path class="cls-19" d="M190.79,177.14a12.29,12.29,0,0,0-.18,9.71l.36-.45c6.73-6.4,13.92.73,13.9,5.43,0,2.93-3.73,11.65-11,4.26-.83-.84-4.89-5.25-3.25-9.24a12.29,12.29,0,0,1,.18-9.71,10.91,10.91,0,0,1,.56-1l-.66,1.16-.17.34-.53,1.23a16.59,16.59,0,0,0-.83,3.12l-.15,1.27a16.07,16.07,0,0,0,0,2.78l.17,1.22c.14.65.35,1.52.53,2.17l.39,1.08c.21.48.49,1.11.72,1.58l.52.92c.22.35.52.81.75,1.15l.59.77c.22.26.5.6.73.85l.62.65c.21.19.48.46.7.65l.64.54.68.53.66.45.69.44.7.39.2.11.71.35.72.32.74.28.75.25.77.23.81.19.83.16.92.12.91.08,1.06,0,1,0c.38,0,.89-.07,1.27-.12l1.08-.18c.47-.11,1.1-.26,1.56-.39l1.12-.38c.57-.24,1.33-.58,1.89-.86l1.07-.62a14.89,14.89,0,0,0,2.12-1.6l.92-.9a16.1,16.1,0,0,0,1.94-2.51l.66-1.16.17-.34.53-1.23a16.59,16.59,0,0,0,.83-3.12l.15-1.27a16.21,16.21,0,0,0,0-2.79l-.17-1.21c-.14-.66-.35-1.52-.53-2.17l-.39-1.08c-.21-.48-.49-1.11-.72-1.58l-.52-.93-.75-1.14-.59-.77c-.21-.26-.5-.6-.73-.85l-.62-.65c-.21-.19-.48-.46-.7-.65l-.64-.54c-.2-.16-.47-.38-.68-.53l-.66-.46-.69-.43-.7-.39-.2-.11-.71-.35-.72-.32-.74-.28-.75-.26-.77-.22-.81-.19-.83-.16-.92-.13-.91-.07-1.06,0-1,0c-.38,0-.89.07-1.27.12l-1.08.18c-.47.11-1.1.26-1.56.39l-1.12.37c-.57.25-1.33.59-1.89.86l-1.07.63a14.89,14.89,0,0,0-2.12,1.6l-.92.9a16.1,16.1,0,0,0-1.94,2.51,10.91,10.91,0,0,0-.56,1"/><path class="cls-20" d="M190.79,177.14a12.14,12.14,0,0,0-.43,9l.38-.44c6.14-5.54,14.48.34,14.41,6.32,0,2.63-3.24,12.42-11.35,4.1-.55-.56-5.3-5.61-3.44-10a12.14,12.14,0,0,1,.43-9,10.91,10.91,0,0,1,.56-1l-.66,1.16-.17.34-.53,1.23a16.59,16.59,0,0,0-.83,3.12l-.15,1.27a16.07,16.07,0,0,0,0,2.78l.17,1.22c.14.65.35,1.52.53,2.17l.39,1.08c.21.48.49,1.11.72,1.58l.52.92c.22.35.52.81.75,1.15l.59.77c.22.26.5.6.73.85l.62.65c.21.19.48.46.7.65l.64.54.68.53.66.45.69.44.7.39.2.11.71.35.72.32.74.28.75.25.77.23.81.19.83.16.92.12.91.08,1.06,0,1,0c.38,0,.89-.07,1.27-.12l1.08-.18c.47-.11,1.1-.26,1.56-.39l1.12-.38c.57-.24,1.33-.58,1.89-.86l1.07-.62a14.89,14.89,0,0,0,2.12-1.6l.92-.9a16.1,16.1,0,0,0,1.94-2.51l.66-1.16.17-.34.53-1.23a16.59,16.59,0,0,0,.83-3.12l.15-1.27a16.21,16.21,0,0,0,0-2.79l-.17-1.21c-.14-.66-.35-1.52-.53-2.17l-.39-1.08c-.21-.48-.49-1.11-.72-1.58l-.52-.93-.75-1.14-.59-.77c-.21-.26-.5-.6-.73-.85l-.62-.65c-.21-.19-.48-.46-.7-.65l-.64-.54c-.2-.16-.47-.38-.68-.53l-.66-.46-.69-.43-.7-.39-.2-.11-.71-.35-.72-.32-.74-.28-.75-.26-.77-.22-.81-.19-.83-.16-.92-.13-.91-.07-1.06,0-1,0c-.38,0-.89.07-1.27.12l-1.08.18c-.47.11-1.1.26-1.56.39l-1.12.37c-.57.25-1.33.59-1.89.86l-1.07.63a14.89,14.89,0,0,0-2.12,1.6l-.92.9a16.1,16.1,0,0,0-1.94,2.51,10.91,10.91,0,0,0-.56,1"/><path class="cls-21" d="M192,193.91c-2.22-3.27-2.82-6.1-1.78-8.4a12,12,0,0,1,.61-8.37,10.91,10.91,0,0,1,.56-1l-.66,1.16-.17.34-.53,1.23a16.59,16.59,0,0,0-.83,3.12l-.15,1.27a16.07,16.07,0,0,0,0,2.78l.17,1.22c.14.65.35,1.52.53,2.17l.39,1.08c.21.48.49,1.11.72,1.58l.52.92c.22.35.52.81.75,1.15l.59.77.06.08-.58-.76c-.07-.1-.17-.23-.23-.33"/><path class="cls-21" d="M190.79,177.14a12,12,0,0,0-.61,8.37l.38-.46c4.89-4.42,14.62-.86,14.92,7.2.1,2.66-2.62,12.63-11.19,4.39a15.87,15.87,0,0,1-1.41-1.51c.34.39.81.91,1.18,1.29.21.19.48.46.7.65l.64.54.68.53.66.45.69.44.7.39.2.11.71.35.72.32.74.28.75.25.77.23.81.19.83.16.92.12.91.08,1.06,0,1,0c.38,0,.89-.07,1.27-.12l1.08-.18c.47-.11,1.1-.26,1.56-.39l1.12-.38c.57-.24,1.33-.58,1.89-.86l1.07-.62a14.89,14.89,0,0,0,2.12-1.6l.92-.9a16.1,16.1,0,0,0,1.94-2.51l.66-1.16.17-.34.53-1.23a16.59,16.59,0,0,0,.83-3.12l.15-1.27a16.21,16.21,0,0,0,0-2.79l-.17-1.21c-.14-.66-.35-1.52-.53-2.17l-.39-1.08c-.21-.48-.49-1.11-.72-1.58l-.52-.93-.75-1.14-.59-.77c-.21-.26-.5-.6-.73-.85l-.62-.65c-.21-.19-.48-.46-.7-.65l-.64-.54c-.2-.16-.47-.38-.68-.53l-.66-.46-.69-.43-.7-.39-.2-.11-.71-.35-.72-.32-.74-.28-.75-.26-.77-.22-.81-.19-.83-.16-.92-.13-.91-.07-1.06,0-1,0c-.38,0-.89.07-1.27.12l-1.08.18c-.47.11-1.1.26-1.56.39l-1.12.37c-.57.25-1.33.59-1.89.86l-1.07.63a14.89,14.89,0,0,0-2.12,1.6l-.92.9a16.1,16.1,0,0,0-1.94,2.51,10.91,10.91,0,0,0-.56,1"/><path class="cls-22" d="M190.1,190.41c-1.18-3.13-.44-4.75-.08-5.53a11.81,11.81,0,0,1,.77-7.74,10.91,10.91,0,0,1,.56-1l-.66,1.16-.17.34-.53,1.23a16.59,16.59,0,0,0-.83,3.12l-.15,1.27a16.07,16.07,0,0,0,0,2.78l.17,1.22c.14.65.35,1.52.53,2.17l.39,1.08c.14.32.31.74.46,1.06l-.39-.89-.1-.26"/><path class="cls-22" d="M190.79,177.14a11.81,11.81,0,0,0-.77,7.74l.4-.46c4.72-4.25,15.56.18,15.42,8.09,0,.13-.34,12.69-10,5.42.27.21.65.47.93.66l.69.44.7.39.2.11.71.35.72.32.74.28.75.25.77.23.81.19.83.16.92.12.91.08,1.06,0,1,0c.38,0,.89-.07,1.27-.12l1.08-.18c.47-.11,1.1-.26,1.56-.39l1.12-.38c.57-.24,1.33-.58,1.89-.86l1.07-.62a14.89,14.89,0,0,0,2.12-1.6l.92-.9a16.1,16.1,0,0,0,1.94-2.51l.66-1.16.17-.34.53-1.23a16.59,16.59,0,0,0,.83-3.12l.15-1.27a16.21,16.21,0,0,0,0-2.79l-.17-1.21c-.14-.66-.35-1.52-.53-2.17l-.39-1.08c-.21-.48-.49-1.11-.72-1.58l-.52-.93-.75-1.14-.59-.77c-.21-.26-.5-.6-.73-.85l-.62-.65c-.21-.19-.48-.46-.7-.65l-.64-.54c-.2-.16-.47-.38-.68-.53l-.66-.46-.69-.43-.7-.39-.2-.11-.71-.35-.72-.32-.74-.28-.75-.26-.77-.22-.81-.19-.83-.16-.92-.13-.91-.07-1.06,0-1,0c-.38,0-.89.07-1.27.12l-1.08.18c-.47.11-1.1.26-1.56.39l-1.12.37c-.57.25-1.33.59-1.89.86l-1.07.63a14.89,14.89,0,0,0-2.12,1.6l-.92.9a16.1,16.1,0,0,0-1.94,2.51,10.91,10.91,0,0,0-.56,1"/><path class="cls-23" d="M189.87,189.8c-.77-2.54-.76-3.83,0-5.51a11.61,11.61,0,0,1,.88-7.15,10.91,10.91,0,0,1,.56-1l-.66,1.16-.17.34-.53,1.23a16.59,16.59,0,0,0-.83,3.12l-.15,1.27a16.07,16.07,0,0,0,0,2.78l.17,1.22c.14.65.35,1.52.53,2.17l.18.53a.88.88,0,0,1,0-.15"/><path class="cls-23" d="M190.79,177.14a11.61,11.61,0,0,0-.88,7.15l.4-.48c4.56-4.17,16.43.28,15.86,9.73-.39,6.67-3.46,8.54-8.86,5.41l.82.47.2.11.71.35.72.32.74.28.75.25.77.23.81.19.83.16.92.12.91.08,1.06,0,1,0c.38,0,.89-.07,1.27-.12l1.08-.18c.47-.11,1.1-.26,1.56-.39l1.12-.38c.57-.24,1.33-.58,1.89-.86l1.07-.62a14.89,14.89,0,0,0,2.12-1.6l.92-.9a16.1,16.1,0,0,0,1.94-2.51l.66-1.16.17-.34.53-1.23a16.59,16.59,0,0,0,.83-3.12l.15-1.27a16.21,16.21,0,0,0,0-2.79l-.17-1.21c-.14-.66-.35-1.52-.53-2.17l-.39-1.08c-.21-.48-.49-1.11-.72-1.58l-.52-.93-.75-1.14-.59-.77c-.21-.26-.5-.6-.73-.85l-.62-.65c-.21-.19-.48-.46-.7-.65l-.64-.54c-.2-.16-.47-.38-.68-.53l-.66-.46-.69-.43-.7-.39-.2-.11-.71-.35-.72-.32-.74-.28-.75-.26-.77-.22-.81-.19-.83-.16-.92-.13-.91-.07-1.06,0-1,0c-.38,0-.89.07-1.27.12l-1.08.18c-.47.11-1.1.26-1.56.39l-1.12.37c-.57.25-1.33.59-1.89.86l-1.07.63a14.89,14.89,0,0,0-2.12,1.6l-.92.9a16.1,16.1,0,0,0-1.94,2.51,10.91,10.91,0,0,0-.56,1"/><path class="cls-24" d="M189.31,187.7a5.8,5.8,0,0,1,.51-4,11.48,11.48,0,0,1,1-6.57,10.91,10.91,0,0,1,.56-1l-.66,1.16-.17.34-.53,1.23a16.59,16.59,0,0,0-.83,3.12l-.15,1.27a16.07,16.07,0,0,0,0,2.78l.17,1.22c.09.43.2,1,.31,1.42l-.2-.89a.22.22,0,0,1,0-.08"/><path class="cls-24" d="M190.79,177.14a11.48,11.48,0,0,0-1,6.57l.41-.49c4.45-4.11,16.16.47,16.4,9.93.08,3.15-.55,10.1-8,6.5l.71.34.47.21.74.28.75.25.77.23.81.19.83.16.92.12.91.08,1.06,0,1,0c.38,0,.89-.07,1.27-.12l1.08-.18c.47-.11,1.1-.26,1.56-.39l1.12-.38c.57-.24,1.33-.58,1.89-.86l1.07-.62a14.89,14.89,0,0,0,2.12-1.6l.92-.9a16.1,16.1,0,0,0,1.94-2.51l.66-1.16.17-.34.53-1.23a16.59,16.59,0,0,0,.83-3.12l.15-1.27a16.21,16.21,0,0,0,0-2.79l-.17-1.21c-.14-.66-.35-1.52-.53-2.17l-.39-1.08c-.21-.48-.49-1.11-.72-1.58l-.52-.93-.75-1.14-.59-.77c-.21-.26-.5-.6-.73-.85l-.62-.65c-.21-.19-.48-.46-.7-.65l-.64-.54c-.2-.16-.47-.38-.68-.53l-.66-.46-.69-.43-.7-.39-.2-.11-.71-.35-.72-.32-.74-.28-.75-.26-.77-.22-.81-.19-.83-.16-.92-.13-.91-.07-1.06,0-1,0c-.38,0-.89.07-1.27.12l-1.08.18c-.47.11-1.1.26-1.56.39l-1.12.37c-.57.25-1.33.59-1.89.86l-1.07.63a14.89,14.89,0,0,0-2.12,1.6l-.92.9a16.1,16.1,0,0,0-1.94,2.51,10.91,10.91,0,0,0-.56,1"/><path class="cls-25" d="M189.2,187.19a6.06,6.06,0,0,1,.55-4,11.5,11.5,0,0,1,1-6,10.91,10.91,0,0,1,.56-1l-.66,1.16-.17.34-.53,1.23a16.59,16.59,0,0,0-.83,3.12l-.15,1.27a16.07,16.07,0,0,0,0,2.78l.17,1.22,0,.31-.06-.37"/><path class="cls-25" d="M190.79,177.14a11.5,11.5,0,0,0-1,6l.42-.5c4.08-3.83,17,.39,16.92,11.55,0,2.18-.05,8.8-7.34,6l.75.29.75.25.77.23.81.19.83.16.92.12.91.08,1.06,0,1,0c.38,0,.89-.07,1.27-.12l1.08-.18c.47-.11,1.1-.26,1.56-.39l1.12-.38c.57-.24,1.33-.58,1.89-.86l1.07-.62a14.89,14.89,0,0,0,2.12-1.6l.92-.9a16.1,16.1,0,0,0,1.94-2.51l.66-1.16.17-.34.53-1.23a16.59,16.59,0,0,0,.83-3.12l.15-1.27a16.21,16.21,0,0,0,0-2.79l-.17-1.21c-.14-.66-.35-1.52-.53-2.17l-.39-1.08c-.21-.48-.49-1.11-.72-1.58l-.52-.93-.75-1.14-.59-.77c-.21-.26-.5-.6-.73-.85l-.62-.65c-.21-.19-.48-.46-.7-.65l-.64-.54c-.2-.16-.47-.38-.68-.53l-.66-.46-.69-.43-.7-.39-.2-.11-.71-.35-.72-.32-.74-.28-.75-.26-.77-.22-.81-.19-.83-.16-.92-.13-.91-.07-1.06,0-1,0c-.38,0-.89.07-1.27.12l-1.08.18c-.47.11-1.1.26-1.56.39l-1.12.37c-.57.25-1.33.59-1.89.86l-1.07.63a14.89,14.89,0,0,0-2.12,1.6l-.92.9a16.1,16.1,0,0,0-1.94,2.51,10.91,10.91,0,0,0-.56,1"/><path class="cls-26" d="M189,185.16a5.25,5.25,0,0,1,.7-2.56,11.3,11.3,0,0,1,1.07-5.46,10.91,10.91,0,0,1,.56-1l-.66,1.16-.17.34-.53,1.23a16.59,16.59,0,0,0-.83,3.12l-.15,1.27a16.07,16.07,0,0,0,0,2.78l.05.45-.07-.87v-.45"/><path class="cls-26" d="M190.79,177.14a11.3,11.3,0,0,0-1.07,5.46l.42-.51c4.54-4.32,17.41,1.53,17.48,12,0,2.41,0,8.82-6.83,6.45L202,201l.81.19.83.16.92.12.91.08,1.06,0,1,0c.38,0,.89-.07,1.27-.12l1.08-.18c.47-.11,1.1-.26,1.56-.39l1.12-.38c.57-.24,1.33-.58,1.89-.86l1.07-.62a14.89,14.89,0,0,0,2.12-1.6l.92-.9a16.1,16.1,0,0,0,1.94-2.51l.66-1.16.17-.34.53-1.23a16.59,16.59,0,0,0,.83-3.12l.15-1.27a16.21,16.21,0,0,0,0-2.79l-.17-1.21c-.14-.66-.35-1.52-.53-2.17l-.39-1.08c-.21-.48-.49-1.11-.72-1.58l-.52-.93-.75-1.14-.59-.77c-.21-.26-.5-.6-.73-.85l-.62-.65c-.21-.19-.48-.46-.7-.65l-.64-.54c-.2-.16-.47-.38-.68-.53l-.66-.46-.69-.43-.7-.39-.2-.11-.71-.35-.72-.32-.74-.28-.75-.26-.77-.22-.81-.19-.83-.16-.92-.13-.91-.07-1.06,0-1,0c-.38,0-.89.07-1.27.12l-1.08.18c-.47.11-1.1.26-1.56.39l-1.12.37c-.57.25-1.33.59-1.89.86l-1.07.63a14.89,14.89,0,0,0-2.12,1.6l-.92.9a16.1,16.1,0,0,0-1.94,2.51,10.91,10.91,0,0,0-.56,1"/><path class="cls-27" d="M189,184.64a5.43,5.43,0,0,1,.72-2.58,11.35,11.35,0,0,1,1.09-4.92,10.91,10.91,0,0,1,.56-1l-.66,1.16-.17.34-.53,1.23a16.59,16.59,0,0,0-.83,3.12l-.15,1.27c0,.68,0,1.59,0,2.27l0-.87h0"/><path class="cls-27" d="M190.79,177.14a11.35,11.35,0,0,0-1.09,4.92l.43-.53c4.34-4.19,18.14,1.35,18.12,14.18,0,6.22-4.51,5.7-6.45,5.19l.79.2.24.05.83.16.92.12.91.08,1.06,0,1,0c.38,0,.89-.07,1.27-.12l1.08-.18c.47-.11,1.1-.26,1.56-.39l1.12-.38c.57-.24,1.33-.58,1.89-.86l1.07-.62a14.89,14.89,0,0,0,2.12-1.6l.92-.9a16.1,16.1,0,0,0,1.94-2.51l.66-1.16.17-.34.53-1.23a16.59,16.59,0,0,0,.83-3.12l.15-1.27a16.21,16.21,0,0,0,0-2.79l-.17-1.21c-.14-.66-.35-1.52-.53-2.17l-.39-1.08c-.21-.48-.49-1.11-.72-1.58l-.52-.93-.75-1.14-.59-.77c-.21-.26-.5-.6-.73-.85l-.62-.65c-.21-.19-.48-.46-.7-.65l-.64-.54c-.2-.16-.47-.38-.68-.53l-.66-.46-.69-.43-.7-.39-.2-.11-.71-.35-.72-.32-.74-.28-.75-.26-.77-.22-.81-.19-.83-.16-.92-.13-.91-.07-1.06,0-1,0c-.38,0-.89.07-1.27.12l-1.08.18c-.47.11-1.1.26-1.56.39l-1.12.37c-.57.25-1.33.59-1.89.86l-1.07.63a14.89,14.89,0,0,0-2.12,1.6l-.92.9a16.1,16.1,0,0,0-1.94,2.51,10.91,10.91,0,0,0-.56,1"/><path class="cls-28" d="M189,184.13a5.61,5.61,0,0,1,.74-2.61,11.34,11.34,0,0,1,1.08-4.38,10.91,10.91,0,0,1,.56-1l-.66,1.16-.17.34-.53,1.23a16.59,16.59,0,0,0-.83,3.12l-.15,1.27c0,.41,0,.95,0,1.36v-.48"/><path class="cls-28" d="M190.79,177.14a11.34,11.34,0,0,0-1.08,4.38l.43-.54c4.86-4.75,19.2,3.17,18.75,15.45-.14,3.73-2.41,5.49-6.08,4.72l.85.16.92.12.91.08,1.06,0,1,0c.38,0,.89-.07,1.27-.12l1.08-.18c.47-.11,1.1-.26,1.56-.39l1.12-.38c.57-.24,1.33-.58,1.89-.86l1.07-.62a14.89,14.89,0,0,0,2.12-1.6l.92-.9a16.1,16.1,0,0,0,1.94-2.51l.66-1.16.17-.34.53-1.23a16.59,16.59,0,0,0,.83-3.12l.15-1.27a16.21,16.21,0,0,0,0-2.79l-.17-1.21c-.14-.66-.35-1.52-.53-2.17l-.39-1.08c-.21-.48-.49-1.11-.72-1.58l-.52-.93-.75-1.14-.59-.77c-.21-.26-.5-.6-.73-.85l-.62-.65c-.21-.19-.48-.46-.7-.65l-.64-.54c-.2-.16-.47-.38-.68-.53l-.66-.46-.69-.43-.7-.39-.2-.11-.71-.35-.72-.32-.74-.28-.75-.26-.77-.22-.81-.19-.83-.16-.92-.13-.91-.07-1.06,0-1,0c-.38,0-.89.07-1.27.12l-1.08.18c-.47.11-1.1.26-1.56.39l-1.12.37c-.57.25-1.33.59-1.89.86l-1.07.63a14.89,14.89,0,0,0-2.12,1.6l-.92.9a16.1,16.1,0,0,0-1.94,2.51,10.91,10.91,0,0,0-.56,1"/><path class="cls-29" d="M189,183.61a5.51,5.51,0,0,1,.76-2.62,10.66,10.66,0,0,1,1.6-4.86l-.66,1.16-.17.34-.53,1.23a16.59,16.59,0,0,0-.83,3.12l-.15,1.27,0,.44v-.08"/><path class="cls-29" d="M190.79,177.14a10.87,10.87,0,0,0-1,3.85l.43-.56c5.33-5.28,19.48,4.3,19.39,15.76,0,2.18-.79,5.75-5.79,5.14.51.07,1.19.14,1.71.18l1.06,0,1,0c.38,0,.89-.07,1.27-.12l1.08-.18c.47-.11,1.1-.26,1.56-.39l1.12-.38c.57-.24,1.33-.58,1.89-.86l1.07-.62a14.89,14.89,0,0,0,2.12-1.6l.92-.9a16.1,16.1,0,0,0,1.94-2.51l.66-1.16.17-.34.53-1.23a16.59,16.59,0,0,0,.83-3.12l.15-1.27a16.21,16.21,0,0,0,0-2.79l-.17-1.21c-.14-.66-.35-1.52-.53-2.17l-.39-1.08c-.21-.48-.49-1.11-.72-1.58l-.52-.93-.75-1.14-.59-.77c-.21-.26-.5-.6-.73-.85l-.62-.65c-.21-.19-.48-.46-.7-.65l-.64-.54c-.2-.16-.47-.38-.68-.53l-.66-.46-.69-.43-.7-.39-.2-.11-.71-.35-.72-.32-.74-.28-.75-.26-.77-.22-.81-.19-.83-.16-.92-.13-.91-.07-1.06,0-1,0c-.38,0-.89.07-1.27.12l-1.08.18c-.47.11-1.1.26-1.56.39l-1.12.37c-.57.25-1.33.59-1.89.86l-1.07.63a14.89,14.89,0,0,0-2.12,1.6l-.92.9a16.1,16.1,0,0,0-1.94,2.51,10.91,10.91,0,0,0-.56,1"/><path class="cls-30" d="M189.27,181.67a7.81,7.81,0,0,1,.54-1.22,10.58,10.58,0,0,1,1.54-4.32l-.66,1.16-.17.34-.53,1.23a15.56,15.56,0,0,0-.83,3.12l-.11.82.14-.81c0-.09.05-.22.08-.32"/><path class="cls-30" d="M190.79,177.14a10.87,10.87,0,0,0-1,3.31l.43-.57c5.38-5.38,19.69,4.37,20,16.08,0,1.4-.24,5.95-5.48,5.49l.91.07.87,0,1,0c.38,0,.89-.07,1.27-.12l1.08-.18c.47-.11,1.1-.26,1.56-.39l1.12-.38c.57-.24,1.33-.58,1.89-.86l1.07-.62a14.89,14.89,0,0,0,2.12-1.6l.92-.9a16.1,16.1,0,0,0,1.94-2.51l.66-1.16.17-.34.53-1.23a16.59,16.59,0,0,0,.83-3.12l.15-1.27a16.21,16.21,0,0,0,0-2.79l-.17-1.21c-.14-.66-.35-1.52-.53-2.17l-.39-1.08c-.21-.48-.49-1.11-.72-1.58l-.52-.93-.75-1.14-.59-.77c-.21-.26-.5-.6-.73-.85l-.62-.65c-.21-.19-.48-.46-.7-.65l-.64-.54c-.2-.16-.47-.38-.68-.53l-.66-.46-.69-.43-.7-.39-.2-.11-.71-.35-.72-.32-.74-.28-.75-.26-.77-.22-.81-.19-.83-.16-.92-.13-.91-.07-1.06,0-1,0c-.38,0-.89.07-1.27.12l-1.08.18c-.47.11-1.1.26-1.56.39l-1.12.37c-.57.25-1.33.59-1.89.86l-1.07.63a14.89,14.89,0,0,0-2.12,1.6l-.92.9a16.1,16.1,0,0,0-1.94,2.51,10.91,10.91,0,0,0-.56,1"/><path class="cls-31" d="M189.35,181.14a10.41,10.41,0,0,1,.54-1.23,11.08,11.08,0,0,1,.9-2.77,10.91,10.91,0,0,1,.56-1l-.66,1.16-.17.34-.53,1.23a15.85,15.85,0,0,0-.82,3l.18-.77"/><path class="cls-31" d="M190.79,177.14a11.08,11.08,0,0,0-.9,2.77l.44-.58c5.73-5.8,20.19,5.67,20.62,16.37.06,1.4-.15,6-5.22,5.82.54,0,1.27,0,1.82,0,.38,0,.89-.07,1.27-.12l1.08-.18c.47-.11,1.1-.26,1.56-.39l1.12-.38c.57-.24,1.33-.58,1.89-.86l1.07-.62a14.89,14.89,0,0,0,2.12-1.6l.92-.9a16.1,16.1,0,0,0,1.94-2.51l.66-1.16.17-.34.53-1.23a16.59,16.59,0,0,0,.83-3.12l.15-1.27a16.21,16.21,0,0,0,0-2.79l-.17-1.21c-.14-.66-.35-1.52-.53-2.17l-.39-1.08c-.21-.48-.49-1.11-.72-1.58l-.52-.93-.75-1.14-.59-.77c-.21-.26-.5-.6-.73-.85l-.62-.65c-.21-.19-.48-.46-.7-.65l-.64-.54c-.2-.16-.47-.38-.68-.53l-.66-.46-.69-.43-.7-.39-.2-.11-.71-.35-.72-.32-.74-.28-.75-.26-.77-.22-.81-.19-.83-.16-.92-.13-.91-.07-1.06,0-1,0c-.38,0-.89.07-1.27.12l-1.08.18c-.47.11-1.1.26-1.56.39l-1.12.37c-.57.25-1.33.59-1.89.86l-1.07.63a14.89,14.89,0,0,0-2.12,1.6l-.92.9a16.1,16.1,0,0,0-1.94,2.51,10.91,10.91,0,0,0-.56,1"/><path class="cls-32" d="M189.46,180.59a10.46,10.46,0,0,1,.55-1.23,11.27,11.27,0,0,1,.78-2.22,10.91,10.91,0,0,1,.56-1l-.66,1.16-.17.34-.53,1.23c-.21.65-.48,1.53-.65,2.19l.12-.46"/><path class="cls-32" d="M190.79,177.14a11.27,11.27,0,0,0-.78,2.22l.44-.59c6-6.1,21.05,6.06,21.22,17.12,0,2-.57,5.45-4.93,5.65l1,0,1.08-.11,1.08-.18c.47-.11,1.1-.26,1.56-.39l1.12-.38c.57-.24,1.33-.58,1.89-.86l1.07-.62a14.89,14.89,0,0,0,2.12-1.6l.92-.9a16.1,16.1,0,0,0,1.94-2.51l.66-1.16.17-.34.53-1.23a16.59,16.59,0,0,0,.83-3.12l.15-1.27a16.21,16.21,0,0,0,0-2.79l-.17-1.21c-.14-.66-.35-1.52-.53-2.17l-.39-1.08c-.21-.48-.49-1.11-.72-1.58l-.52-.93-.75-1.14-.59-.77c-.21-.26-.5-.6-.73-.85l-.62-.65c-.21-.19-.48-.46-.7-.65l-.64-.54c-.2-.16-.47-.38-.68-.53l-.66-.46-.69-.43-.7-.39-.2-.11-.71-.35-.72-.32-.74-.28-.75-.26-.77-.22-.81-.19-.83-.16-.92-.13-.91-.07-1.06,0-1,0c-.38,0-.89.07-1.27.12l-1.08.18c-.47.11-1.1.26-1.56.39l-1.12.37c-.57.25-1.33.59-1.89.86l-1.07.63a14.89,14.89,0,0,0-2.12,1.6l-.92.9a16.1,16.1,0,0,0-1.94,2.51,10.91,10.91,0,0,0-.56,1"/><path class="cls-33" d="M189.6,180c.15-.38.37-.88.56-1.24a10.25,10.25,0,0,1,.63-1.64,10.91,10.91,0,0,1,.56-1l-.66,1.16-.17.34-.53,1.23c-.12.39-.31.89-.42,1.28l0-.12"/><path class="cls-33" d="M190.79,177.14a10.25,10.25,0,0,0-.63,1.64l.44-.59c5.9-6.1,21.59,6.42,21.8,17.4.1,4.82-2.88,5.77-4.66,5.91l1-.1h.06l1.08-.18c.47-.11,1.1-.26,1.56-.39l1.12-.38c.57-.24,1.33-.58,1.89-.86l1.07-.62a14.89,14.89,0,0,0,2.12-1.6l.92-.9a16.1,16.1,0,0,0,1.94-2.51l.66-1.16.17-.34.53-1.23a16.59,16.59,0,0,0,.83-3.12l.15-1.27a16.21,16.21,0,0,0,0-2.79l-.17-1.21c-.14-.66-.35-1.52-.53-2.17l-.39-1.08c-.21-.48-.49-1.11-.72-1.58l-.52-.93-.75-1.14-.59-.77c-.21-.26-.5-.6-.73-.85l-.62-.65c-.21-.19-.48-.46-.7-.65l-.64-.54c-.2-.16-.47-.38-.68-.53l-.66-.46-.69-.43-.7-.39-.2-.11-.71-.35-.72-.32-.74-.28-.75-.26-.77-.22-.81-.19-.83-.16-.92-.13-.91-.07-1.06,0-1,0c-.38,0-.89.07-1.27.12l-1.08.18c-.47.11-1.1.26-1.56.39l-1.12.37c-.57.25-1.33.59-1.89.86l-1.07.63a14.89,14.89,0,0,0-2.12,1.6l-.92.9a16.1,16.1,0,0,0-1.94,2.51,10.91,10.91,0,0,0-.56,1"/><path class="cls-34" d="M190.35,178.2a10.77,10.77,0,0,1,.44-1.06,10.91,10.91,0,0,1,.56-1l-.66,1.16-.17.34-.53,1.23-.14.39.31-.72.19-.33"/><path class="cls-34" d="M190.79,177.14a10.77,10.77,0,0,0-.44,1.06l.45-.6c6.22-6.48,22.54,6.87,22.38,18.31,0,1.47-.48,5-4.38,5.48l1.1-.18c.47-.11,1.1-.26,1.56-.39l1.12-.38c.57-.24,1.33-.58,1.89-.86l1.07-.62a14.89,14.89,0,0,0,2.12-1.6l.92-.9a16.1,16.1,0,0,0,1.94-2.51l.66-1.16.17-.34.53-1.23a16.59,16.59,0,0,0,.83-3.12l.15-1.27a16.21,16.21,0,0,0,0-2.79l-.17-1.21c-.14-.66-.35-1.52-.53-2.17l-.39-1.08c-.21-.48-.49-1.11-.72-1.58l-.52-.93-.75-1.14-.59-.77c-.21-.26-.5-.6-.73-.85l-.62-.65c-.21-.19-.48-.46-.7-.65l-.64-.54c-.2-.16-.47-.38-.68-.53l-.66-.46-.69-.43-.7-.39-.2-.11-.71-.35-.72-.32-.74-.28-.75-.26-.77-.22-.81-.19-.83-.16-.92-.13-.91-.07-1.06,0-1,0c-.38,0-.89.07-1.27.12l-1.08.18c-.47.11-1.1.26-1.56.39l-1.12.37c-.57.25-1.33.59-1.89.86l-1.07.63a14.89,14.89,0,0,0-2.12,1.6l-.92.9a16.1,16.1,0,0,0-1.94,2.51,10.91,10.91,0,0,0-.56,1"/><path class="cls-35" d="M190.6,177.57c.06-.15.12-.29.19-.43a10.91,10.91,0,0,1,.56-1l-.66,1.16-.17.34-.29.65.35-.69,0,0"/><path class="cls-35" d="M190.79,177.14c-.07.14-.13.28-.19.43l.45-.62c6.14-6.46,23.08,7.27,22.94,18.6,0,1.45-.45,4.91-4.1,5.66L211,201l.49-.14,1.12-.38c.57-.24,1.33-.58,1.89-.86l1.07-.62a14.89,14.89,0,0,0,2.12-1.6l.92-.9a16.1,16.1,0,0,0,1.94-2.51l.66-1.16.17-.34.53-1.23a16.59,16.59,0,0,0,.83-3.12l.15-1.27a16.21,16.21,0,0,0,0-2.79l-.17-1.21c-.14-.66-.35-1.52-.53-2.17l-.39-1.08c-.21-.48-.49-1.11-.72-1.58l-.52-.93-.75-1.14-.59-.77c-.21-.26-.5-.6-.73-.85l-.62-.65c-.21-.19-.48-.46-.7-.65l-.64-.54c-.2-.16-.47-.38-.68-.53l-.66-.46-.69-.43-.7-.39-.2-.11-.71-.35-.72-.32-.74-.28-.75-.26-.77-.22-.81-.19-.83-.16-.92-.13-.91-.07-1.06,0-1,0c-.38,0-.89.07-1.27.12l-1.08.18c-.47.11-1.1.26-1.56.39l-1.12.37c-.57.25-1.33.59-1.89.86l-1.07.63a14.89,14.89,0,0,0-2.12,1.6l-.92.9a16.1,16.1,0,0,0-1.94,2.51,10.91,10.91,0,0,0-.56,1"/><path class="cls-36" d="M190.92,176.89c.13-.26.28-.52.43-.76h0l-.65,1.14c.07-.11.15-.26.22-.38"/><path class="cls-36" d="M190.92,176.89c5.61-7.68,21.77,5,23.71,16.09,1.05,6-2.15,7.56-3.57,8,.46-.13,1.06-.34,1.52-.5s1.33-.58,1.89-.86l1.07-.62a14.89,14.89,0,0,0,2.12-1.6l.92-.9a16.1,16.1,0,0,0,1.94-2.51l.66-1.16.17-.34.53-1.23a16.59,16.59,0,0,0,.83-3.12l.15-1.27a16.21,16.21,0,0,0,0-2.79l-.17-1.21c-.14-.66-.35-1.52-.53-2.17l-.39-1.08c-.21-.48-.49-1.11-.72-1.58l-.52-.93-.75-1.14-.59-.77c-.21-.26-.5-.6-.73-.85l-.62-.65c-.21-.19-.48-.46-.7-.65l-.64-.54c-.2-.16-.47-.38-.68-.53l-.66-.46-.69-.43-.7-.39-.2-.11-.71-.35-.72-.32-.74-.28-.75-.26-.77-.22-.81-.19-.83-.16-.92-.13-.91-.07-1.06,0-1,0c-.38,0-.89.07-1.27.12l-1.08.18c-.47.11-1.1.26-1.56.39l-1.12.37c-.57.25-1.33.59-1.89.86l-1.07.63a14.89,14.89,0,0,0-2.12,1.6l-.92.9a16.1,16.1,0,0,0-1.94,2.51c-.15.24-.3.5-.43.76"/><path class="cls-37" d="M191.33,176.15l0,0,0,0v0"/><path class="cls-37" d="M191.33,176.15c6-8.29,22.81,5.74,24.39,17.38.18,1.28.45,5.58-3.32,7l1.1-.45,1-.48,1.07-.62a14.89,14.89,0,0,0,2.12-1.6l.92-.9a16.1,16.1,0,0,0,1.94-2.51l.66-1.16.17-.34.53-1.23a16.59,16.59,0,0,0,.83-3.12l.15-1.27a16.21,16.21,0,0,0,0-2.79l-.17-1.21c-.14-.66-.35-1.52-.53-2.17l-.39-1.08c-.21-.48-.49-1.11-.72-1.58l-.52-.93-.75-1.14-.59-.77c-.21-.26-.5-.6-.73-.85l-.62-.65c-.21-.19-.48-.46-.7-.65l-.64-.54c-.2-.16-.47-.38-.68-.53l-.66-.46-.69-.43-.7-.39-.2-.11-.71-.35-.72-.32-.74-.28-.75-.26-.77-.22-.81-.19-.83-.16-.92-.13-.91-.07-1.06,0-1,0c-.38,0-.89.07-1.27.12l-1.08.18c-.47.11-1.1.26-1.56.39l-1.12.37c-.57.25-1.33.59-1.89.86l-1.07.63a14.89,14.89,0,0,0-2.12,1.6l-.92.9a16.1,16.1,0,0,0-1.94,2.51l0,0"/><path class="cls-38" d="M192.84,174.17c7.25-6.44,25.28,9.28,24.11,21a5.45,5.45,0,0,1-2.9,4.61c.46-.23,1-.58,1.49-.84a14.89,14.89,0,0,0,2.12-1.6l.92-.9a16.1,16.1,0,0,0,1.94-2.51l.66-1.16.17-.34.53-1.23a16.59,16.59,0,0,0,.83-3.12l.15-1.27a16.21,16.21,0,0,0,0-2.79l-.17-1.21c-.14-.66-.35-1.52-.53-2.17l-.39-1.08c-.21-.48-.49-1.11-.72-1.58l-.52-.93-.75-1.14-.59-.77c-.21-.26-.5-.6-.73-.85l-.62-.65c-.21-.19-.48-.46-.7-.65l-.64-.54c-.2-.16-.47-.38-.68-.53l-.66-.46-.69-.43-.7-.39-.2-.11-.71-.35-.72-.32-.74-.28-.75-.26-.77-.22-.81-.19-.83-.16-.92-.13-.91-.07-1.06,0-1,0c-.38,0-.89.07-1.27.12l-1.08.18c-.47.11-1.1.26-1.56.39l-1.12.37c-.57.25-1.33.59-1.89.86l-1.07.63a14.89,14.89,0,0,0-2.12,1.6l-.92.9c-.3.34-.7.78-1,1.14l.53-.59h0"/><path class="cls-39" d="M195.73,193.56c4.11,3.11,7.8.56,7.52-2.64-.37-4.3-5.82-7.13-8.32-4.33a5,5,0,0,0,.8,7"/><path class="cls-39" d="M195.72,192.8c1.82,1.48,3.09,2.14,5,1.62a3.37,3.37,0,0,0,2.3-3.62c-.28-3.81-5.21-6.62-7.54-4.29-2.48,2.48-.38,5.77.26,6.29"/><path class="cls-40" d="M196,192.52c.88.95,2.8,2.07,4.13,1.71a4.58,4.58,0,0,0,1.83-1,3.28,3.28,0,0,0,.77-2.53c-.31-3.73-5-6-6.9-4.09-2.3,2.24-.66,5,.17,5.92"/><path class="cls-40" d="M196.38,192.39c2.54,2.7,6.49,1.53,6.13-1.81s-4.57-5.72-6.6-3.59c-1.37,1.43-1.18,3.65.47,5.4"/><path class="cls-40" d="M196.65,192.19a4.77,4.77,0,0,0,2.93,1.42,2.72,2.72,0,0,0,2.54-1.74c1-2.58-2.48-6.25-5-5.3a3.1,3.1,0,0,0-1.55,1.43,10.54,10.54,0,0,0-.2,1.58c-.07.84.54,1.62,1.31,2.61"/><path class="cls-41" d="M197.1,192.24c.55.55,2.11,1.37,3.14,1s.94-.36,1.63-1.46a2.39,2.39,0,0,0,.14-1.38,4.79,4.79,0,0,0-2.24-3.17c-1-.44-2.34-1-3.73.54,0,0-1.4,2,1.06,4.49"/><path class="cls-41" d="M197.24,192a3.13,3.13,0,0,0,3,.93,3.09,3.09,0,0,0,1.34-1.23,2.48,2.48,0,0,0,.13-1.38,4.37,4.37,0,0,0-.73-1.72,16.16,16.16,0,0,0-1.28-1.1,3.09,3.09,0,0,0-1.33-.47,5.91,5.91,0,0,0-1.27.21,2.3,2.3,0,0,0-.87.74,7.06,7.06,0,0,0-.34,1.52,3.84,3.84,0,0,0,1.31,2.5"/><path class="cls-41" d="M197,191.24c.78.85,1.59,1.74,3.3,1.33h0c.31-.3.84-.62,1-1a2.63,2.63,0,0,0,.12-1.39,4.18,4.18,0,0,0-1.74-2.46,3.09,3.09,0,0,0-1.31-.44c-1,.07-1.44.24-1.73.65a2.76,2.76,0,0,0,.3,3.32"/><path class="cls-42" d="M197,190.82a5,5,0,0,0,1.77,1.45l.8.11c1-.35,1.2-.44,1.46-.94a2.15,2.15,0,0,0,.16-1.37,5.72,5.72,0,0,0-1-1.75,3.42,3.42,0,0,0-1.73-.78,2.26,2.26,0,0,0-1.21.29c-.27.14-.67,1.55-.67,1.57a2.75,2.75,0,0,0,.46,1.42"/><path class="cls-42" d="M197.34,190.8a3.91,3.91,0,0,0,1.36,1.07,2.38,2.38,0,0,0,.82.13,4.38,4.38,0,0,0,.92-.39.7.7,0,0,0,.27-.27c.57-1.17-.05-2-1-3.12-.26-.31-.88-.35-1.28-.4a1.11,1.11,0,0,0-.59.13s-1.7.84-.48,2.85"/><path class="cls-42" d="M197.67,190.74a4.84,4.84,0,0,0,1,.72,2.87,2.87,0,0,0,.86.14,1.4,1.4,0,0,0,.81-.38,1.8,1.8,0,0,0,.21-1.35,2.61,2.61,0,0,0-.9-1.19,1.91,1.91,0,0,0-1.21-.5c-.41,0-.78.55-1.06.84a.73.73,0,0,0-.15.35c-.12.42.3,1,.46,1.37"/><path class="cls-42" d="M198.31,190.84a.55.55,0,0,0,.29.21c1,.17,1,.17,1.15,0a1.79,1.79,0,0,0,.3-1.33,1.08,1.08,0,0,0-.45-.6,2,2,0,0,0-1.17-.41,1.07,1.07,0,0,0-.76.65c-.09.46.34,1.08.64,1.45"/><path class="cls-43" d="M198.5,189.92a1.12,1.12,0,0,0,1.06-.22s0,0,0-.06a8,8,0,0,0-1.12-.34.23.23,0,0,0-.17.13.51.51,0,0,0,.21.49"/></g><path class="cls-14" d="M200.1,197.16c-.53-.28-1-.57-1.55-.89-.28.46.19,1.2,1.07,1.66s1.81.45,2.09,0-.19-1.2-1.06-1.65-1.74-.45-2.06-.05c.45.29,1,.68,1.51.94"/><path class="cls-44" d="M198.6,197a.71.71,0,0,1,0-.74c-7.32-4.61-10.77-12.86-7.76-19.13a10.91,10.91,0,0,1,.56-1c-.25.44-.6,1-.83,1.5a16.28,16.28,0,0,0-1.36,4.35A16.84,16.84,0,0,0,189,186a16.57,16.57,0,0,0,1.81,6.05l.18.34c1.3,2.37,3.94,4.06,7.57,4.59"/><path class="cls-14" d="M199.5,197.86a2.32,2.32,0,0,1-.9-.85c-3.63-.53-6.27-2.22-7.57-4.59.32.53.75,1.22,1.09,1.73a16.76,16.76,0,0,0,1.32,1.62,14.65,14.65,0,0,0,1.32,1.3c.85.72.85.72,1.32,1.07.87.6.89.61,1.35.89l.24.14c.27.15.88-.26,1.83-1.31"/><path class="cls-44" d="M200.78,198.26a3,3,0,0,1-1.16-.33l-.12-.07c-.95,1-1.56,1.46-1.83,1.31l.66.36c.95.47.95.47,1.43.67a13.24,13.24,0,0,0,1.49.53c1,.3,1,.3,1.58.42a13.59,13.59,0,0,0,1.75.28l1.07.09c-1.72-.08-3.42-1.16-4.87-3.26"/><path class="cls-14" d="M201.67,198a1.06,1.06,0,0,1-.89.28c1.45,2.1,3.15,3.18,4.87,3.26l.9,0a17.78,17.78,0,0,0,2.27-.15,18.06,18.06,0,0,0,2.64-.57,17.76,17.76,0,0,0,3-1.24,17.1,17.1,0,0,0,3.19-2.22c.54-.52,1.23-1.25,1.72-1.81-6.15,6.87-15.11,3.6-17.71,2.43"/><path class="cls-44" d="M201.66,197.17a.73.73,0,0,1,.05.75.21.21,0,0,1,0,.06c10.64,4.57,16.25-.71,17.71-2.43.35-.47.82-1.1,1.14-1.6s.6-1,.83-1.5a16.4,16.4,0,0,0,1.36-4.35,16.9,16.9,0,0,0,.12-4.06,17.88,17.88,0,0,0-.7-3.38A17.46,17.46,0,0,0,221,178l-.26-.47c1.26,2.24,1.29,5.12-.19,8.2-3,6.27-11.24,11.16-18.91,11.44"/><path class="cls-14" d="M200.75,196.33a2.42,2.42,0,0,1,.91.84c7.67-.28,15.89-5.17,18.91-11.44,1.48-3.08,1.45-6,.19-8.2-.29-.49-.69-1.13-1-1.6a16.76,16.76,0,0,0-1.32-1.62,14.65,14.65,0,0,0-1.32-1.3,14.27,14.27,0,0,0-1.32-1.07c-.87-.6-.88-.61-1.35-.89l-.32-.18c.48.27-.27,2.66-2.25,6.78a129.26,129.26,0,0,1-11.12,18.68"/><path class="cls-44" d="M199.47,195.93a3,3,0,0,1,1.18.34l.1.06a129.26,129.26,0,0,0,11.12-18.68c2-4.12,2.73-6.51,2.25-6.78l-.58-.32c-.95-.47-.95-.47-1.43-.67-1-.37-1-.38-1.49-.54a15.65,15.65,0,0,0-1.58-.41,17.26,17.26,0,0,0-1.75-.29l-1.19-.09c-2.39-.09-4.78,1.7-6.52,5.31-3,6.27-3,15.81-.11,22.07"/><path class="cls-14" d="M198.59,196.22a1,1,0,0,1,.88-.29c-2.9-6.26-2.91-15.8.11-22.07,1.74-3.61,4.13-5.4,6.52-5.31h-.78a16.1,16.1,0,0,0-2.27.15,18.36,18.36,0,0,0-2.64.57,18.54,18.54,0,0,0-3,1.23,17.71,17.71,0,0,0-3.19,2.23,15.61,15.61,0,0,0-1.88,2,10.25,10.25,0,0,0-1.2,1.93c-3,6.27.3,14.71,7.46,19.56"/></g></g><g class="cls-12"><g class="cls-45"><g class="cls-12"><path class="cls-17" d="M198.33,199.53c-8.81-4.72-11.94-15.22-7-23.4,3.65-5.87,12.49-7.35,20.42-3.21-7.93-4.14-16.77-2.66-20.42,3.21A16.62,16.62,0,0,1,209,168.91,17.47,17.47,0,0,1,222.69,183c2.23,13.36-12.12,23.09-24.36,16.53"/><path class="cls-17" d="M191.35,176.13a16.26,16.26,0,0,1,2.86-3.41l1-.81a15.13,15.13,0,0,1,2.21-1.42l1.08-.52c.57-.23,1.34-.52,1.93-.71l1.08-.29c.46-.09,1.09-.21,1.56-.28l1-.11c.37,0,.87,0,1.25,0l.93,0,1,.08.86.12.89.17.79.18.79.23.75.26.74.28.72.32.71.35.71.39.19.11.68.43.67.46.66.5c.2.17.47.39.66.57l.65.59c.2.21.48.49.67.71l.62.71c.21.27.5.63.7.91l.58.86c.21.36.49.84.69,1.21l.48,1c.2.49.46,1.15.63,1.65l.32,1.15c.14.67.29,1.56.38,2.23l.07,1.25a15.41,15.41,0,0,1-.19,2.81l-.26,1.28a16.1,16.1,0,0,1-1.1,3.07l-.64,1.18-.19.32-.75,1.1a15.93,15.93,0,0,1-2.11,2.31l-1,.81a14,14,0,0,1-2.21,1.41l-1.08.53c-.57.23-1.34.52-1.93.71l-1.08.29c-.46.09-1.09.21-1.56.28l-1,.1c-.37,0-.87,0-1.25,0l-.93,0c-.32,0-.73-.05-1-.09l-.86-.11-.89-.17L202,201c-.24-.06-.56-.15-.79-.23l-.75-.25-.74-.28-.72-.32-.71-.35-.71-.39-.19-.11-.68-.43-.67-.46-.66-.51c-.2-.16-.47-.38-.66-.56l-.64-.6c-.21-.21-.49-.48-.68-.7l-.62-.71c-.21-.28-.5-.63-.7-.91l-.57-.86c-.22-.36-.5-.84-.7-1.21l-.48-1c-.2-.49-.46-1.15-.63-1.65l-.32-1.15c-.14-.67-.29-1.56-.38-2.24l-.07-1.24a15.33,15.33,0,0,1,.19-2.81l.26-1.28a16.1,16.1,0,0,1,1.1-3.07l.64-1.18.19-.32c3.65-5.87,12.49-7.35,20.42-3.21l-.24.11c-8.4,5.12-1.24,11.71,1.81,12.48,3.77,1,9.73-3.27,6.56-8.63-1.72-2.89-5.37-6-8.13-4-7.93-4.14-16.77-2.66-20.42,3.21"/><path class="cls-18" d="M191.35,176.13a16.26,16.26,0,0,1,2.86-3.41l1-.81a15.13,15.13,0,0,1,2.21-1.42l1.08-.52c.57-.23,1.34-.52,1.93-.71l1.08-.29c.46-.09,1.09-.21,1.56-.28l1-.11c.37,0,.87,0,1.25,0l.93,0,1,.08.86.12.89.17.79.18.79.23.75.26.74.28.72.32.71.35.71.39.19.11.68.43.67.46.66.5c.2.17.47.39.66.57l.65.59c.2.21.48.49.67.71l.62.71c.21.27.5.63.7.91l.58.86c.21.36.49.84.69,1.21l.48,1c.2.49.46,1.15.63,1.65l.32,1.15c.14.67.29,1.56.38,2.23l.07,1.25a15.41,15.41,0,0,1-.19,2.81l-.26,1.28a16.1,16.1,0,0,1-1.1,3.07l-.64,1.18-.19.32-.75,1.1a15.93,15.93,0,0,1-2.11,2.31l-1,.81a14,14,0,0,1-2.21,1.41l-1.08.53c-.57.23-1.34.52-1.93.71l-1.08.29c-.46.09-1.09.21-1.56.28l-1,.1c-.37,0-.87,0-1.25,0l-.93,0c-.32,0-.73-.05-1-.09l-.86-.11-.89-.17L202,201c-.24-.06-.56-.15-.79-.23l-.75-.25-.74-.28-.72-.32-.71-.35-.71-.39-.19-.11-.68-.43-.67-.46-.66-.51c-.2-.16-.47-.38-.66-.56l-.64-.6c-.21-.21-.49-.48-.68-.7l-.62-.71c-.21-.28-.5-.63-.7-.91l-.57-.86c-.22-.36-.5-.84-.7-1.21l-.48-1c-.2-.49-.46-1.15-.63-1.65l-.32-1.15c-.14-.67-.29-1.56-.38-2.24l-.07-1.24a15.33,15.33,0,0,1,.19-2.81l.26-1.28a16.1,16.1,0,0,1,1.1-3.07l.64-1.18.19-.32c3.54-5.68,12-7.25,19.68-3.58v0c-9,7.07.49,13,3.19,13.32,2.88.38,10.67-2.62,5.27-10-4.27-5.85-7.41-3.95-8.45-3.33-7.73-3.67-16.14-2.1-19.68,3.58"/><path class="cls-19" d="M191.35,176.13a16.26,16.26,0,0,1,2.86-3.41l1-.81a15.13,15.13,0,0,1,2.21-1.42l1.08-.52c.57-.23,1.34-.52,1.93-.71l1.08-.29c.46-.09,1.09-.21,1.56-.28l1-.11c.37,0,.87,0,1.25,0l.93,0,1,.08.86.12.89.17.79.18.79.23.75.26.74.28.72.32.71.35.71.39.19.11.68.43.67.46.66.5c.2.17.47.39.66.57l.65.59c.2.21.48.49.67.71l.62.71c.21.27.5.63.7.91l.58.86c.21.36.49.84.69,1.21l.48,1c.2.49.46,1.15.63,1.65l.32,1.15c.14.67.29,1.56.38,2.23l.07,1.25a15.41,15.41,0,0,1-.19,2.81l-.26,1.28a16.1,16.1,0,0,1-1.1,3.07l-.64,1.18-.19.32-.75,1.1a15.93,15.93,0,0,1-2.11,2.31l-1,.81a14,14,0,0,1-2.21,1.41l-1.08.53c-.57.23-1.34.52-1.93.71l-1.08.29c-.46.09-1.09.21-1.56.28l-1,.1c-.37,0-.87,0-1.25,0l-.93,0c-.32,0-.73-.05-1-.09l-.86-.11-.89-.17L202,201c-.24-.06-.56-.15-.79-.23l-.75-.25-.74-.28-.72-.32-.71-.35-.71-.39-.19-.11-.68-.43-.67-.46-.66-.51c-.2-.16-.47-.38-.66-.56l-.64-.6c-.21-.21-.49-.48-.68-.7l-.62-.71c-.21-.28-.5-.63-.7-.91l-.57-.86c-.22-.36-.5-.84-.7-1.21l-.48-1c-.2-.49-.46-1.15-.63-1.65l-.32-1.15c-.14-.67-.29-1.56-.38-2.24l-.07-1.24a15.33,15.33,0,0,1,.19-2.81l.26-1.28a16.1,16.1,0,0,1,1.1-3.07l.64-1.18.19-.32c3.4-5.46,11.29-7.12,18.76-4l0,.07c-3.79,5.63-3.79,5.63-2.41,8.72,1.13,2.53,4.36,6,8.63,5.22,8.92-1.64,5.14-10.1-.15-13.71-2.83-1.93-3.71-1.49-6-.3-7.47-3.13-15.36-1.47-18.76,4"/><path class="cls-20" d="M191.35,176.13a16.26,16.26,0,0,1,2.86-3.41l1-.81a15.13,15.13,0,0,1,2.21-1.42l1.08-.52c.57-.23,1.34-.52,1.93-.71l1.08-.29c.46-.09,1.09-.21,1.56-.28l1-.11c.37,0,.87,0,1.25,0l.93,0,1,.08.86.12.89.17.79.18.79.23.75.26.74.28.72.32.71.35.71.39.19.11.68.43.67.46.66.5c.2.17.47.39.66.57l.65.59c.2.21.48.49.67.71l.62.71c.21.27.5.63.7.91l.58.86c.21.36.49.84.69,1.21l.48,1c.2.49.46,1.15.63,1.65l.32,1.15c.14.67.29,1.56.38,2.23l.07,1.25a15.41,15.41,0,0,1-.19,2.81l-.26,1.28a16.1,16.1,0,0,1-1.1,3.07l-.64,1.18-.19.32-.75,1.1a15.93,15.93,0,0,1-2.11,2.31l-1,.81a14,14,0,0,1-2.21,1.41l-1.08.53c-.57.23-1.34.52-1.93.71l-1.08.29c-.46.09-1.09.21-1.56.28l-1,.1c-.37,0-.87,0-1.25,0l-.93,0c-.32,0-.73-.05-1-.09l-.86-.11-.89-.17L202,201c-.24-.06-.56-.15-.79-.23l-.75-.25-.74-.28-.72-.32-.71-.35-.71-.39-.19-.11-.68-.43-.67-.46-.66-.51c-.2-.16-.47-.38-.66-.56l-.64-.6c-.21-.21-.49-.48-.68-.7l-.62-.71c-.21-.28-.5-.63-.7-.91l-.57-.86c-.22-.36-.5-.84-.7-1.21l-.48-1c-.2-.49-.46-1.15-.63-1.65l-.32-1.15c-.14-.67-.29-1.56-.38-2.24l-.07-1.24a15.33,15.33,0,0,1,.19-2.81l.26-1.28a16.1,16.1,0,0,1,1.1-3.07l.64-1.18.19-.32c3.28-5.28,10.77-7,18-4.29l-.07.1c-7.15,10.37,3.28,15,7,14.55,10-1.25,4.64-10.4.27-13.86-1.67-1.33-4.85-3.2-7.22-.79-7.24-2.72-14.73-1-18,4.29"/><path class="cls-21" d="M219.75,175.93A17.44,17.44,0,0,1,221,178l.48,1c.2.49.46,1.15.63,1.65l.32,1.15c.14.67.29,1.56.38,2.23l.07,1.25a15.41,15.41,0,0,1-.19,2.81l-.26,1.28a16.1,16.1,0,0,1-1.1,3.07l-.64,1.18-.19.32-.75,1.1a15.93,15.93,0,0,1-2.11,2.31l-1,.81a14,14,0,0,1-2.21,1.41l-1.08.53c-.57.23-1.34.52-1.93.71l-1.08.29c-.46.09-1.09.21-1.56.28l-1,.1c-.37,0-.87,0-1.25,0l-.93,0c-.32,0-.73-.05-1-.09l-.86-.11-.89-.17L202,201c-.24-.06-.56-.15-.79-.23l-.75-.25-.74-.28-.72-.32-.71-.35-.71-.39-.19-.11-.68-.43-.67-.46-.66-.51c-.2-.16-.47-.38-.66-.56l-.64-.6c-.21-.21-.49-.48-.68-.7l-.62-.71c-.21-.28-.5-.63-.7-.91l-.57-.86c-.22-.36-.5-.84-.7-1.21l-.48-1c-.2-.49-.46-1.15-.63-1.65l-.32-1.15c-.14-.67-.29-1.56-.38-2.24l-.07-1.24a15.33,15.33,0,0,1,.19-2.81l.26-1.28a16.1,16.1,0,0,1,1.1-3.07l.64-1.18.19-.32c3.17-5.1,10.26-6.89,17.27-4.55l-.1.13c-6,9.28,2.78,16.39,9.19,15,8.56-1.92,2.66-10,1.39-11.59l.59.77.06.08"/><path class="cls-21" d="M191.35,176.13a16.26,16.26,0,0,1,2.86-3.41l1-.81a15.13,15.13,0,0,1,2.21-1.42l1.08-.52c.57-.23,1.34-.52,1.93-.71l1.08-.29c.46-.09,1.09-.21,1.56-.28l1-.11c.37,0,.87,0,1.25,0l.93,0,1,.08.86.12.89.17.79.18.79.23.75.26.74.28.72.32.71.35.71.39.19.11.68.43.67.46.66.5c.2.17.47.39.66.57l.65.59c.2.21.48.49.67.71l.56.64-.18-.22c-4.48-5-8.6-5.33-10.19-3.15-7-2.34-14.1-.55-17.27,4.55"/><path class="cls-22" d="M222.13,180.66a18.36,18.36,0,0,1,.7,3.38l.07,1.25a15.41,15.41,0,0,1-.19,2.81l-.26,1.28a16.1,16.1,0,0,1-1.1,3.07l-.64,1.18-.19.32-.75,1.1a15.93,15.93,0,0,1-2.11,2.31l-1,.81a14,14,0,0,1-2.21,1.41l-1.08.53c-.57.23-1.34.52-1.93.71l-1.08.29c-.46.09-1.09.21-1.56.28l-1,.1c-.37,0-.87,0-1.25,0l-.93,0c-.32,0-.73-.05-1-.09l-.86-.11-.89-.17L202,201c-.24-.06-.56-.15-.79-.23l-.75-.25-.74-.28-.72-.32-.71-.35-.71-.39-.19-.11-.68-.43-.67-.46-.66-.51c-.2-.16-.47-.38-.66-.56l-.64-.6c-.21-.21-.49-.48-.68-.7l-.62-.71c-.21-.28-.5-.63-.7-.91l-.57-.86c-.22-.36-.5-.84-.7-1.21l-.48-1c-.2-.49-.46-1.15-.63-1.65l-.32-1.15c-.14-.67-.29-1.56-.38-2.24l-.07-1.24a15.33,15.33,0,0,1,.19-2.81l.26-1.28a16.1,16.1,0,0,1,1.1-3.07l.64-1.18.19-.32c3.06-4.93,9.79-6.76,16.56-4.77l-.11.15c-5.16,8.64,2.4,17.31,10.7,15.52,5.07-1.1,4.31-5.24,2.78-8.51l.45,1c.12.33.3.77.4,1.1"/><path class="cls-22" d="M191.35,176.13a16.26,16.26,0,0,1,2.86-3.41l1-.81a15.13,15.13,0,0,1,2.21-1.42l1.08-.52c.57-.23,1.34-.52,1.93-.71l1.08-.29c.46-.09,1.09-.21,1.56-.28l1-.11c.37,0,.87,0,1.25,0l.93,0,1,.08.86.12.89.17.79.18.79.23.75.26.74.28.72.32.71.35.71.39.19.11.68.43.67.46.27.21-.67-.49c-3.92-2.6-6.43-1.86-7.48-.3-6.77-2-13.5-.16-16.56,4.77"/><path class="cls-23" d="M222.13,180.66a17.54,17.54,0,0,1,.7,3.38l.07,1.25a15.41,15.41,0,0,1-.19,2.81l-.26,1.28a16.1,16.1,0,0,1-1.1,3.07l-.64,1.18-.19.32-.75,1.1a15.93,15.93,0,0,1-2.11,2.31l-1,.81a14,14,0,0,1-2.21,1.41l-1.08.53c-.57.23-1.34.52-1.93.71l-1.08.29c-.46.09-1.09.21-1.56.28l-1,.1c-.37,0-.87,0-1.25,0l-.93,0c-.32,0-.73-.05-1-.09l-.86-.11-.89-.17L202,201c-.24-.06-.56-.15-.79-.23l-.75-.25-.74-.28-.72-.32-.71-.35-.71-.39-.19-.11-.68-.43-.67-.46-.66-.51c-.2-.16-.47-.38-.66-.56l-.64-.6c-.21-.21-.49-.48-.68-.7l-.62-.71c-.21-.28-.5-.63-.7-.91l-.57-.86c-.22-.36-.5-.84-.7-1.21l-.48-1c-.2-.49-.46-1.15-.63-1.65l-.32-1.15c-.14-.67-.29-1.56-.38-2.24l-.07-1.24a15.33,15.33,0,0,1,.19-2.81l.26-1.28a16.1,16.1,0,0,1,1.1-3.07l.64-1.18.19-.32c3-4.75,9.33-6.63,15.86-5l-.13.19a11,11,0,0,0,12.68,16c2.68-.77,3.5-3.45,2.19-7.17.05.16.13.37.18.53"/><path class="cls-23" d="M191.35,176.13a16.26,16.26,0,0,1,2.86-3.41l1-.81a15.13,15.13,0,0,1,2.21-1.42l1.08-.52c.57-.23,1.34-.52,1.93-.71l1.08-.29c.46-.09,1.09-.21,1.56-.28l1-.11c.37,0,.87,0,1.25,0l.93,0,1,.08.86.12.89.17.79.18.79.23.75.26.74.28.72.32.71.35.71.39.19.11.12.08-.43-.25c-4.41-2.3-6.23-.81-6.92.28-6.53-1.66-12.9.22-15.86,5"/><path class="cls-24" d="M222.83,184a16.73,16.73,0,0,1-.12,4.06l-.26,1.28a16.1,16.1,0,0,1-1.1,3.07l-.64,1.18-.19.32-.75,1.1a15.93,15.93,0,0,1-2.11,2.31l-1,.81a14,14,0,0,1-2.21,1.41l-1.08.53c-.57.23-1.34.52-1.93.71l-1.08.29c-.46.09-1.09.21-1.56.28l-1,.1c-.37,0-.87,0-1.25,0l-.93,0c-.32,0-.73-.05-1-.09l-.86-.11-.89-.17L202,201c-.24-.06-.56-.15-.79-.23l-.75-.25-.74-.28-.72-.32-.71-.35-.71-.39-.19-.11-.68-.43-.67-.46-.66-.51c-.2-.16-.47-.38-.66-.56l-.64-.6c-.21-.21-.49-.48-.68-.7l-.62-.71c-.21-.28-.5-.63-.7-.91l-.57-.86c-.22-.36-.5-.84-.7-1.21l-.48-1c-.2-.49-.46-1.15-.63-1.65l-.32-1.15c-.14-.67-.29-1.56-.38-2.24l-.07-1.24a15.33,15.33,0,0,1,.19-2.81l.26-1.28a16.1,16.1,0,0,1,1.1-3.07l.64-1.18.19-.32c2.85-4.59,8.88-6.49,15.17-5.13l-.14.22c-5.1,10,6.72,19.46,13.92,16.52,3-1.24,2.45-4.84,2-6.33l.27,1.17c.07.44.17,1,.21,1.46"/><path class="cls-24" d="M191.35,176.13a16.26,16.26,0,0,1,2.86-3.41l1-.81a15.13,15.13,0,0,1,2.21-1.42l1.08-.52c.57-.23,1.34-.52,1.93-.71l1.08-.29c.46-.09,1.09-.21,1.56-.28l1-.11c.37,0,.87,0,1.25,0l.93,0,1,.08.86.12.89.17.79.18.79.23.75.26.74.28.72.32.46.22-.37-.17c-4.09-1.75-5.77-.28-6.4.75-6.29-1.36-12.32.54-15.17,5.13"/><path class="cls-25" d="M222.83,184a16.73,16.73,0,0,1-.12,4.06l-.26,1.28a16.1,16.1,0,0,1-1.1,3.07l-.64,1.18-.19.32-.75,1.1a15.93,15.93,0,0,1-2.11,2.31l-1,.81a14,14,0,0,1-2.21,1.41l-1.08.53c-.57.23-1.34.52-1.93.71l-1.08.29c-.46.09-1.09.21-1.56.28l-1,.1c-.37,0-.87,0-1.25,0l-.93,0c-.32,0-.73-.05-1-.09l-.86-.11-.89-.17L202,201c-.24-.06-.56-.15-.79-.23l-.75-.25-.74-.28-.72-.32-.71-.35-.71-.39-.19-.11-.68-.43-.67-.46-.66-.51c-.2-.16-.47-.38-.66-.56l-.64-.6c-.21-.21-.49-.48-.68-.7l-.62-.71c-.21-.28-.5-.63-.7-.91l-.57-.86c-.22-.36-.5-.84-.7-1.21l-.48-1c-.2-.49-.46-1.15-.63-1.65l-.32-1.15c-.14-.67-.29-1.56-.38-2.24l-.07-1.24a15.33,15.33,0,0,1,.19-2.81l.26-1.28a16.1,16.1,0,0,1,1.1-3.07l.64-1.18.19-.32c2.75-4.42,8.45-6.35,14.49-5.26l-.16.24c-4.71,9.38,6.43,20.34,14.52,17.28,2.15-.82,3-2.79,2.41-5.87l.19,1.2,0,.32"/><path class="cls-25" d="M191.35,176.13a16.26,16.26,0,0,1,2.86-3.41l1-.81a15.13,15.13,0,0,1,2.21-1.42l1.08-.52c.57-.23,1.34-.52,1.93-.71l1.08-.29c.46-.09,1.09-.21,1.56-.28l1-.11c.37,0,.87,0,1.25,0l.93,0,1,.08.86.12.89.17.79.18.79.23.75.26.74.28-.4-.15c-3.76-1.26-5.29.17-5.87,1.14-6-1.09-11.74.84-14.49,5.26"/><path class="cls-26" d="M222.83,184a16.58,16.58,0,0,1-.12,4.06l-.26,1.28a16.1,16.1,0,0,1-1.1,3.07l-.64,1.18-.19.32-.75,1.1a15.93,15.93,0,0,1-2.11,2.31l-1,.81a14,14,0,0,1-2.21,1.41l-1.08.53c-.57.23-1.34.52-1.93.71l-1.08.29c-.46.09-1.09.21-1.56.28l-1,.1c-.37,0-.87,0-1.25,0l-.93,0c-.32,0-.73-.05-1-.09l-.86-.11-.89-.17L202,201c-.24-.06-.56-.15-.79-.23l-.75-.25-.74-.28-.72-.32-.71-.35-.71-.39-.19-.11-.68-.43-.67-.46-.66-.51c-.2-.16-.47-.38-.66-.56l-.64-.6c-.21-.21-.49-.48-.68-.7l-.62-.71c-.21-.28-.5-.63-.7-.91l-.57-.86c-.22-.36-.5-.84-.7-1.21l-.48-1c-.2-.49-.46-1.15-.63-1.65l-.32-1.15c-.14-.67-.29-1.56-.38-2.24l-.07-1.24a15.33,15.33,0,0,1,.19-2.81l.26-1.28a16.1,16.1,0,0,1,1.1-3.07l.64-1.18.19-.32c2.65-4.26,8-6.21,13.81-5.37L205,171c-4.44,9.14,7.72,21,15.37,17.9,1.3-.53,2.77-1.88,2.42-5.33,0,.13,0,.31.05.44"/><path class="cls-26" d="M191.35,176.13a16.26,16.26,0,0,1,2.86-3.41l1-.81a15.13,15.13,0,0,1,2.21-1.42l1.08-.52c.57-.23,1.34-.52,1.93-.71l1.08-.29c.46-.09,1.09-.21,1.56-.28l1-.11c.37,0,.87,0,1.25,0l.93,0,1,.08.86.12.89.17.79.18.79.23.46.15-.59-.18c-2.59-.62-4.38-.14-5.33,1.45-5.78-.84-11.16,1.11-13.81,5.37"/><path class="cls-27" d="M222.71,188.1a16.36,16.36,0,0,1-1.36,4.35l-.64,1.18-.19.32-.75,1.1a15.93,15.93,0,0,1-2.11,2.31l-1,.81a14,14,0,0,1-2.21,1.41l-1.08.53c-.57.23-1.34.52-1.93.71l-1.08.29c-.46.09-1.09.21-1.56.28l-1,.1c-.37,0-.87,0-1.25,0l-.93,0c-.32,0-.73-.05-1-.09l-.86-.11-.89-.17L202,201c-.24-.06-.56-.15-.79-.23l-.75-.25-.74-.28-.72-.32-.71-.35-.71-.39-.19-.11-.68-.43-.67-.46-.66-.51c-.2-.16-.47-.38-.66-.56l-.64-.6c-.21-.21-.49-.48-.68-.7l-.62-.71c-.21-.28-.5-.63-.7-.91l-.57-.86c-.22-.36-.5-.84-.7-1.21l-.48-1c-.2-.49-.46-1.15-.63-1.65l-.32-1.15c-.14-.67-.29-1.56-.38-2.24l-.07-1.24a15.33,15.33,0,0,1,.19-2.81l.26-1.28a16.1,16.1,0,0,1,1.1-3.07l.64-1.18.19-.32c2.55-4.09,7.62-6,13.14-5.46l-.19.3c-4.43,9.28,8.48,21.65,16,18.53.84-.34,2.75-1.51,2.52-4.94l0,1.26c0,.68-.09,1.6-.2,2.28"/><path class="cls-27" d="M191.35,176.13a16.26,16.26,0,0,1,2.86-3.41l1-.81a15.13,15.13,0,0,1,2.21-1.42l1.08-.52c.57-.23,1.34-.52,1.93-.71l1.08-.29c.46-.09,1.09-.21,1.56-.28l1-.11c.37,0,.87,0,1.25,0l.93,0,1,.08.86.12.89.17.79.18.24.07-.58-.14c-3-.57-4.37.57-5,1.63-5.52-.59-10.59,1.37-13.14,5.46"/><path class="cls-28" d="M222.71,188.1a16.36,16.36,0,0,1-1.36,4.35l-.64,1.18-.19.32-.75,1.1a15.93,15.93,0,0,1-2.11,2.31l-1,.81a14,14,0,0,1-2.21,1.41l-1.08.53c-.57.23-1.34.52-1.93.71l-1.08.29c-.46.09-1.09.21-1.56.28l-1,.1c-.37,0-.87,0-1.25,0l-.93,0c-.32,0-.73-.05-1-.09l-.86-.11-.89-.17L202,201c-.24-.06-.56-.15-.79-.23l-.75-.25-.74-.28-.72-.32-.71-.35-.71-.39-.19-.11-.68-.43-.67-.46-.66-.51c-.2-.16-.47-.38-.66-.56l-.64-.6c-.21-.21-.49-.48-.68-.7l-.62-.71c-.21-.28-.5-.63-.7-.91l-.57-.86c-.22-.36-.5-.84-.7-1.21l-.48-1c-.2-.49-.46-1.15-.63-1.65l-.32-1.15c-.14-.67-.29-1.56-.38-2.24l-.07-1.24a15.33,15.33,0,0,1,.19-2.81l.26-1.28a16.1,16.1,0,0,1,1.1-3.07l.64-1.18.19-.32c2.44-3.93,7.21-5.89,12.47-5.52l-.2.32c-3.91,8.25,8.58,22.56,16.71,19.15,2.51-1.06,2.56-3.73,2.58-4.61l0,1.27c-.05.41-.09,1-.16,1.36"/><path class="cls-28" d="M191.35,176.13a16.26,16.26,0,0,1,2.86-3.41l1-.81a15.13,15.13,0,0,1,2.21-1.42l1.08-.52c.57-.23,1.34-.52,1.93-.71l1.08-.29c.46-.09,1.09-.21,1.56-.28l1-.11c.37,0,.87,0,1.25,0l.93,0,1,.08.86.12.89.17h0c-2.51-.44-4.25.13-5.17,1.69-5.26-.37-10,1.59-12.47,5.52"/><path class="cls-29" d="M222.71,188.1a16.36,16.36,0,0,1-1.36,4.35l-.64,1.18-.19.32-.75,1.1a15.93,15.93,0,0,1-2.11,2.31l-1,.81a14,14,0,0,1-2.21,1.41l-1.08.53c-.57.23-1.34.52-1.93.71l-1.08.29c-.46.09-1.09.21-1.56.28l-1,.1c-.37,0-.87,0-1.25,0l-.93,0c-.32,0-.73-.05-1-.09l-.86-.11-.89-.17L202,201c-.24-.06-.56-.15-.79-.23l-.75-.25-.74-.28-.72-.32-.71-.35-.71-.39-.19-.11-.68-.43-.67-.46-.66-.51c-.2-.16-.47-.38-.66-.56l-.64-.6c-.21-.21-.49-.48-.68-.7l-.62-.71c-.21-.28-.5-.63-.7-.91l-.57-.86c-.22-.36-.5-.84-.7-1.21l-.48-1c-.2-.49-.46-1.15-.63-1.65l-.32-1.15c-.14-.67-.29-1.56-.38-2.24l-.07-1.24a15.33,15.33,0,0,1,.19-2.81l.26-1.28a16.1,16.1,0,0,1,1.1-3.07l.64-1.18.19-.32c2.34-3.76,6.81-5.72,11.8-5.55l-.22.35c-4.29,9.14,10.11,22.85,17.35,19.72,1.11-.48,2.47-1.61,2.61-4.26l-.12,1.27-.06.44"/><path class="cls-29" d="M191.35,176.13a16.26,16.26,0,0,1,2.86-3.41l1-.81a15.13,15.13,0,0,1,2.21-1.42l1.08-.52c.57-.23,1.34-.52,1.93-.71l1.08-.29c.46-.09,1.09-.21,1.56-.28l1-.11c.37,0,.87,0,1.25,0l.93,0,1,.08.8.11-.42-.05c-2.67-.26-3.93.88-4.52,1.88-5-.17-9.46,1.79-11.8,5.55"/><path class="cls-30" d="M222.71,188.1a16.22,16.22,0,0,1-1.36,4.35l-.64,1.18-.19.32-.75,1.1a15.93,15.93,0,0,1-2.11,2.31l-1,.81a14,14,0,0,1-2.21,1.41l-1.08.53c-.57.23-1.34.52-1.93.71l-1.08.29c-.46.09-1.09.21-1.56.28l-1,.1c-.37,0-.87,0-1.25,0l-.93,0c-.32,0-.73-.05-1-.09l-.86-.11-.89-.17L202,201c-.24-.06-.56-.15-.79-.23l-.75-.25-.74-.28-.72-.32-.71-.35-.71-.39-.19-.11-.68-.43-.67-.46-.66-.51c-.2-.16-.47-.38-.66-.56l-.64-.6c-.21-.21-.49-.48-.68-.7l-.62-.71c-.21-.28-.5-.63-.7-.91l-.57-.86c-.22-.36-.5-.84-.7-1.21l-.48-1c-.2-.49-.46-1.15-.63-1.65l-.32-1.15c-.14-.67-.29-1.56-.38-2.24l-.07-1.24a15.33,15.33,0,0,1,.19-2.81l.26-1.28a16.1,16.1,0,0,1,1.1-3.07l.64-1.18.19-.32c2.23-3.59,6.4-5.53,11.12-5.56l-.23.37c-3.9,8.3,9.63,23.68,17.86,20.32a4.63,4.63,0,0,0,2.72-4c0,.25-.07.59-.11.83"/><path class="cls-30" d="M191.35,176.13a16.26,16.26,0,0,1,2.86-3.41l1-.81a15.13,15.13,0,0,1,2.21-1.42l1.08-.52c.57-.23,1.34-.52,1.93-.71l1.08-.29c.46-.09,1.09-.21,1.56-.28l1-.11c.37,0,.87,0,1.25,0l.93,0,.85.06-.56,0a4.31,4.31,0,0,0-4.07,2c-4.72,0-8.89,2-11.12,5.56"/><path class="cls-31" d="M221.35,192.45c-.25.45-.56,1.06-.83,1.5l-.75,1.1a15.93,15.93,0,0,1-2.11,2.31l-1,.81a14,14,0,0,1-2.21,1.41l-1.08.53c-.57.23-1.34.52-1.93.71l-1.08.29c-.46.09-1.09.21-1.56.28l-1,.1c-.37,0-.87,0-1.25,0l-.93,0c-.32,0-.73-.05-1-.09l-.86-.11-.89-.17L202,201c-.24-.06-.56-.15-.79-.23l-.75-.25-.74-.28-.72-.32-.71-.35-.71-.39-.19-.11-.68-.43-.67-.46-.66-.51c-.2-.16-.47-.38-.66-.56l-.64-.6c-.21-.21-.49-.48-.68-.7l-.62-.71c-.21-.28-.5-.63-.7-.91l-.57-.86c-.22-.36-.5-.84-.7-1.21l-.48-1c-.2-.49-.46-1.15-.63-1.65l-.32-1.15c-.14-.67-.29-1.56-.38-2.24l-.07-1.24a15.33,15.33,0,0,1,.19-2.81l.26-1.28a16.1,16.1,0,0,1,1.1-3.07l.64-1.18.19-.32c2.12-3.41,6-5.34,10.44-5.54l-.25.4c-4,8.67,10.2,24.62,18.57,20.81a4.72,4.72,0,0,0,2.59-3.63l-.26,1.27a17.09,17.09,0,0,1-1.09,3"/><path class="cls-31" d="M191.35,176.13a16.26,16.26,0,0,1,2.86-3.41l1-.81a15.13,15.13,0,0,1,2.21-1.42l1.08-.52c.57-.23,1.34-.52,1.93-.71l1.08-.29c.46-.09,1.09-.21,1.56-.28l1-.11c.37,0,.87,0,1.25,0h.6a4.58,4.58,0,0,0-4.13,2c-4.44.2-8.32,2.13-10.44,5.54"/><path class="cls-32" d="M221.35,192.45c-.25.45-.56,1.06-.83,1.5l-.75,1.1a15.93,15.93,0,0,1-2.11,2.31l-1,.81a14,14,0,0,1-2.21,1.41l-1.08.53c-.57.23-1.34.52-1.93.71l-1.08.29c-.46.09-1.09.21-1.56.28l-1,.1c-.37,0-.87,0-1.25,0l-.93,0c-.32,0-.73-.05-1-.09l-.86-.11-.89-.17L202,201c-.24-.06-.56-.15-.79-.23l-.75-.25-.74-.28-.72-.32-.71-.35-.71-.39-.19-.11-.68-.43-.67-.46-.66-.51c-.2-.16-.47-.38-.66-.56l-.64-.6c-.21-.21-.49-.48-.68-.7l-.62-.71c-.21-.28-.5-.63-.7-.91l-.57-.86c-.22-.36-.5-.84-.7-1.21l-.48-1c-.2-.49-.46-1.15-.63-1.65l-.32-1.15c-.14-.67-.29-1.56-.38-2.24l-.07-1.24a15.33,15.33,0,0,1,.19-2.81l.26-1.28a16.1,16.1,0,0,1,1.1-3.07l.64-1.18.19-.32a12.44,12.44,0,0,1,9.74-5.5l-.27.43c-4,8.53,10.83,25.08,19.08,21.34a4.53,4.53,0,0,0,2.63-3.37l-.33,1.26c-.24.66-.55,1.53-.85,2.16"/><path class="cls-32" d="M191.35,176.13a16.26,16.26,0,0,1,2.86-3.41l1-.81a15.13,15.13,0,0,1,2.21-1.42l1.08-.52c.57-.23,1.34-.52,1.93-.71l1.08-.29c.46-.09,1.09-.21,1.56-.28l1-.11c.31,0,.74,0,1.06,0l-.46,0a4.41,4.41,0,0,0-3.58,2.07,12.44,12.44,0,0,0-9.74,5.5"/><path class="cls-33" d="M221.35,192.45c-.25.45-.56,1.06-.83,1.5l-.75,1.1a15.93,15.93,0,0,1-2.11,2.31l-1,.81a14,14,0,0,1-2.21,1.41l-1.08.53c-.57.23-1.34.52-1.93.71l-1.08.29c-.46.09-1.09.21-1.56.28l-1,.1c-.37,0-.87,0-1.25,0l-.93,0c-.32,0-.73-.05-1-.09l-.86-.11-.89-.17L202,201c-.24-.06-.56-.15-.79-.23l-.75-.25-.74-.28-.72-.32-.71-.35-.71-.39-.19-.11-.68-.43-.67-.46-.66-.51c-.2-.16-.47-.38-.66-.56l-.64-.6c-.21-.21-.49-.48-.68-.7l-.62-.71c-.21-.28-.5-.63-.7-.91l-.57-.86c-.22-.36-.5-.84-.7-1.21l-.48-1c-.2-.49-.46-1.15-.63-1.65l-.32-1.15c-.14-.67-.29-1.56-.38-2.24l-.07-1.24a15.33,15.33,0,0,1,.19-2.81l.26-1.28a16.1,16.1,0,0,1,1.1-3.07l.64-1.18.19-.32a12.19,12.19,0,0,1,9-5.42l-.28.45c-3.85,8.36,10.52,24.82,19.23,22a4.64,4.64,0,0,0,3-3.23l-.41,1.25c-.17.38-.36.89-.54,1.26"/><path class="cls-33" d="M191.35,176.13a16.26,16.26,0,0,1,2.86-3.41l1-.81a15.13,15.13,0,0,1,2.21-1.42l1.08-.52c.57-.23,1.34-.52,1.93-.71l1.08-.29c.46-.09,1.09-.21,1.56-.28l1-.11H204a4.6,4.6,0,0,0-3.62,2.12,12.19,12.19,0,0,0-9,5.42"/><path class="cls-34" d="M221.35,192.45c-.25.45-.56,1.06-.83,1.5l-.75,1.1a15.93,15.93,0,0,1-2.11,2.31l-1,.81a14,14,0,0,1-2.21,1.41l-1.08.53c-.57.23-1.34.52-1.93.71l-1.08.29c-.46.09-1.09.21-1.56.28l-1,.1c-.37,0-.87,0-1.25,0l-.93,0c-.32,0-.73-.05-1-.09l-.86-.11-.89-.17L202,201c-.24-.06-.56-.15-.79-.23l-.75-.25-.74-.28-.72-.32-.71-.35-.71-.39-.19-.11-.68-.43-.67-.46-.66-.51c-.2-.16-.47-.38-.66-.56l-.64-.6c-.21-.21-.49-.48-.68-.7l-.62-.71c-.21-.28-.5-.63-.7-.91l-.57-.86c-.22-.36-.5-.84-.7-1.21l-.48-1c-.2-.49-.46-1.15-.63-1.65l-.32-1.15c-.14-.67-.29-1.56-.38-2.24l-.07-1.24a15.33,15.33,0,0,1,.19-2.81l.26-1.28a16.1,16.1,0,0,1,1.1-3.07l.64-1.18.19-.32a12,12,0,0,1,8.28-5.3l-.3.48c-3.94,8.47,11,25.49,19.8,22.47a4.76,4.76,0,0,0,2.89-2.94l-.5,1.24-.17.37"/><path class="cls-34" d="M191.35,176.13a16.26,16.26,0,0,1,2.86-3.41l1-.81a15.13,15.13,0,0,1,2.21-1.42l1.08-.52c.57-.23,1.34-.52,1.93-.71l1.08-.29c.46-.09,1.09-.21,1.56-.28l-.55.1a4.3,4.3,0,0,0-2.87,2,12,12,0,0,0-8.28,5.3"/><path class="cls-35" d="M221.35,192.45c-.23.46-.56,1.06-.83,1.5l-.75,1.1a15.93,15.93,0,0,1-2.11,2.31l-1,.81a14,14,0,0,1-2.21,1.41l-1.08.53c-.57.23-1.34.52-1.93.71l-1.08.29c-.46.09-1.09.21-1.56.28l-1,.1c-.37,0-.87,0-1.25,0l-.93,0c-.32,0-.73-.05-1-.09l-.86-.11-.89-.17L202,201c-.24-.06-.56-.15-.79-.23l-.75-.25-.74-.28-.72-.32-.71-.35-.71-.39-.19-.11-.68-.43-.67-.46-.66-.51c-.2-.16-.47-.38-.66-.56l-.64-.6c-.21-.21-.49-.48-.68-.7l-.62-.71c-.21-.28-.5-.63-.7-.91l-.57-.86c-.22-.36-.5-.84-.7-1.21l-.48-1c-.2-.49-.46-1.15-.63-1.65l-.32-1.15c-.14-.67-.29-1.56-.38-2.24l-.07-1.24a15.33,15.33,0,0,1,.19-2.81l.26-1.28a16.1,16.1,0,0,1,1.1-3.07l.64-1.18.19-.32a11.82,11.82,0,0,1,7.51-5.14l-.31.51c-4,8.67,11.42,26.05,20.33,22.95a4.6,4.6,0,0,0,2.76-2.64l-.29.64"/><path class="cls-35" d="M191.35,176.13a16.26,16.26,0,0,1,2.86-3.41l1-.81a15.13,15.13,0,0,1,2.21-1.42l1.08-.52c.57-.23,1.34-.52,1.93-.71l1.08-.29.49-.1-.13,0a4.44,4.44,0,0,0-3,2.1,11.82,11.82,0,0,0-7.51,5.14"/><path class="cls-36" d="M220.52,194a16.13,16.13,0,0,1-2.86,3.41l-1,.81a14,14,0,0,1-2.21,1.41l-1.08.53c-.57.23-1.34.52-1.93.71l-1.08.29c-.46.09-1.09.21-1.56.28l-1,.1c-.37,0-.87,0-1.25,0l-.93,0c-.32,0-.73-.05-1-.09l-.86-.11-.89-.17L202,201c-.24-.06-.56-.15-.79-.23l-.75-.25-.74-.28-.72-.32-.71-.35-.71-.39-.19-.11-.68-.43-.67-.46-.66-.51c-.2-.16-.47-.38-.66-.56l-.64-.6c-.21-.21-.49-.48-.68-.7l-.62-.71c-.21-.28-.5-.63-.7-.91l-.57-.86c-.22-.36-.5-.84-.7-1.21l-.48-1c-.2-.49-.46-1.15-.63-1.65l-.32-1.15c-.14-.67-.29-1.56-.38-2.24l-.07-1.24a15.33,15.33,0,0,1,.19-2.81l.26-1.28a16.1,16.1,0,0,1,1.1-3.07l.64-1.18.19-.32a11.63,11.63,0,0,1,6.65-4.91l-.33.54c-4.16,9,11.67,26.71,20.91,23.37a4.6,4.6,0,0,0,2.57-2.28c-.19.33-.43.78-.63,1.1"/><path class="cls-36" d="M191.35,176.13a16.26,16.26,0,0,1,2.86-3.41l1-.81a15.13,15.13,0,0,1,2.21-1.42l1.08-.52c.57-.23,1.34-.52,1.93-.71l.4-.12-.56.19a4.19,4.19,0,0,0-2.25,1.89,11.63,11.63,0,0,0-6.65,4.91"/><path class="cls-37" d="M217.66,197.36a17.8,17.8,0,0,1-3.19,2.22l-1.08.53c-.57.23-1.34.52-1.93.71l-1.08.29c-.46.09-1.09.21-1.56.28l-1,.1c-.37,0-.87,0-1.25,0l-.93,0c-.32,0-.73-.05-1-.09l-.86-.11-.89-.17L202,201c-.24-.06-.56-.15-.79-.23l-.75-.25-.74-.28-.72-.32-.71-.35-.71-.39-.19-.11-.68-.43-.67-.46-.66-.51c-.2-.16-.47-.38-.66-.56l-.64-.6c-.21-.21-.49-.48-.68-.7l-.62-.71c-.21-.28-.5-.63-.7-.91l-.57-.86c-.22-.36-.5-.84-.7-1.21l-.48-1c-.2-.49-.46-1.15-.63-1.65l-.32-1.15c-.14-.67-.29-1.56-.38-2.24l-.07-1.24a15.33,15.33,0,0,1,.19-2.81l.26-1.28a16.1,16.1,0,0,1,1.1-3.07l.64-1.18.19-.32a11.41,11.41,0,0,1,5.73-4.6l-.36.58c-4.33,9.2,12.09,27.46,21.43,23.83a5,5,0,0,0,2.35-2l-.75,1.1a16.13,16.13,0,0,1-2.09,2.28"/><path class="cls-37" d="M191.35,176.13a15.47,15.47,0,0,1,2.86-3.41l1-.81a15.13,15.13,0,0,1,2.21-1.42l1.08-.52,1-.4-.1,0a4.24,4.24,0,0,0-2.3,1.93,11.41,11.41,0,0,0-5.73,4.6"/><path class="cls-38" d="M217.66,197.36a17.8,17.8,0,0,1-3.19,2.22l-1.08.53c-.57.23-1.34.52-1.93.71l-1.08.29c-.46.09-1.09.21-1.56.28l-1,.1c-.37,0-.87,0-1.25,0l-.93,0c-.32,0-.73-.05-1-.09l-.86-.11-.89-.17L202,201c-.24-.06-.56-.15-.79-.23l-.75-.25-.74-.28-.72-.32-.71-.35-.71-.39-.19-.11-.68-.43-.67-.46-.66-.51c-.2-.16-.47-.38-.66-.56l-.64-.6c-.21-.21-.49-.48-.68-.7l-.62-.71c-.21-.28-.5-.63-.7-.91l-.57-.86c-.22-.36-.5-.84-.7-1.21l-.48-1c-.2-.49-.46-1.15-.63-1.65l-.32-1.15c-.14-.67-.29-1.56-.38-2.24l-.07-1.24a15.33,15.33,0,0,1,.19-2.81l.26-1.28a16.1,16.1,0,0,1,1.1-3.07l.64-1.18.19-.32A11.14,11.14,0,0,1,196,172l-.4.63c-4.3,8.82,11.58,27.13,21.24,24.49a5.43,5.43,0,0,0,2.71-1.76l-.85,1c-.3.3-.69.72-1,1"/><path class="cls-38" d="M191.35,176.13a15.47,15.47,0,0,1,2.86-3.41l1-.81a15.13,15.13,0,0,1,2.21-1.42l.42-.21-.44.24A3.57,3.57,0,0,0,196,172a11.14,11.14,0,0,0-4.62,4.11"/><path class="cls-16" d="M216.28,173.54c1.63.82,4,3.37,4,6.23,0,1.31-1.95,4.68-4.09,5.35-5.8,1.81-9.92-5.64-7.7-9a10,10,0,0,1,3.5-2.68c2.42-.79,3.52-.23,4.26.14"/><path class="cls-15" d="M217.06,174.71c4.71,3.32,1.71,10.12-2.21,10.41-4.45.32-8.41-5.47-6.06-8.87a6.45,6.45,0,0,1,3-2.07,5.15,5.15,0,0,1,1.19-.11c.57,0,1.13-.15,1.71-.1a3.68,3.68,0,0,1,2.37.74"/><path class="cls-14" d="M217.83,176.85a6,6,0,0,1-.17,6.26,4,4,0,0,1-4.26,1.66c-4.11-.87-6.92-6.72-3.43-9.24a4.48,4.48,0,0,1,3-.9c2.68.45,3.79.63,4.89,2.22"/><path class="cls-39" d="M217.27,177.84c1.92,3,0,7.46-3.86,6.7-3-.59-7.24-5.61-3.09-8.82a3.84,3.84,0,0,1,3.36-.43c2.45.74,3,1.58,3.59,2.55"/><path class="cls-39" d="M216.78,178.15a4.26,4.26,0,0,1,.25,4.57,3.42,3.42,0,0,1-3.61,1.59c-3-.56-6.65-5.44-3.13-8.16,1.83-1.42,4.86-.48,6.49,2"/><path class="cls-40" d="M217.1,180.15a3.5,3.5,0,0,1-1.27,3.47,3.85,3.85,0,0,1-3.82,0,6.07,6.07,0,0,1-2.89-4.19,3.8,3.8,0,0,1,.13-1.42,5.61,5.61,0,0,1,.64-1.11,11.55,11.55,0,0,1,1.21-.8,3.52,3.52,0,0,1,3.33.4c2.1,1.43,2.28,2.13,2.67,3.69"/><path class="cls-40" d="M216.85,180.41c.25,2.73-2.49,4.93-5.64,2.3s-2-6.48,1.06-6.57a5.19,5.19,0,0,1,4.58,4.27"/><path class="cls-40" d="M216.53,180.5c.21,2.51-2.27,4.47-5.17,2.05-2.61-2.18-2.06-5.39.3-6,1.8-.48,4.67,1.53,4.87,4"/><path class="cls-41" d="M216.23,180.57a3.12,3.12,0,0,1-.25,1.54,5.22,5.22,0,0,1-1.22,1.08,3.25,3.25,0,0,1-3.36-.88c-.84-.71-.91-.77-1.46-2.34-.06-.17-.14-.4.06-1.66l.79-1.06a3.38,3.38,0,0,1,1.52-.48,4.37,4.37,0,0,1,2.46,1.07,4.3,4.3,0,0,1,1.46,2.73"/><path class="cls-41" d="M215.94,180.61a2.33,2.33,0,0,1-1.21,2.27c-1.22.23-1.22.23-2,0a4.14,4.14,0,0,1-1.81-1.25,16,16,0,0,1-.77-1.78,3.22,3.22,0,0,1,.13-1.38,2.31,2.31,0,0,1,2.08-1.35,4.12,4.12,0,0,1,3.61,3.54"/><path class="cls-41" d="M215.65,180.65a5.51,5.51,0,0,1-.46,1.51,2.21,2.21,0,0,1-1.18.56,3,3,0,0,1-2.73-1.08,3.3,3.3,0,0,1-.75-3.12c.11-.41.66-.77,1-1l.78-.14a3.87,3.87,0,0,1,3.31,3.27"/><path class="cls-42" d="M214.77,182.16a2.42,2.42,0,0,1-2.59,0,5.17,5.17,0,0,1-1.49-2.11,3,3,0,0,1,.16-1.37,1.46,1.46,0,0,1,.65-.65l.85-.3a2.38,2.38,0,0,1,1.6.61,3.69,3.69,0,0,1,.93,1,5,5,0,0,1,.46,1.42,2.12,2.12,0,0,1-.57,1.48"/><path class="cls-42" d="M214.6,181.7c-.72.91-1.61.52-2.4.17A10.29,10.29,0,0,1,211,180.1s-.07-1.41.45-1.63c.28-.12.63-.43.92-.39a3.19,3.19,0,0,1,.82.13,4.38,4.38,0,0,1,.91.58,2.68,2.68,0,0,1,.92,1.91,1.51,1.51,0,0,1-.4,1"/><path class="cls-42" d="M214.51,181.06a1.31,1.31,0,0,1-2.27.34,4.9,4.9,0,0,1-.9-1.2,1.4,1.4,0,0,1,.21-1.34,1.31,1.31,0,0,1,.81-.38,1.48,1.48,0,0,1,.86.13,3.23,3.23,0,0,1,.95.66c.05.08.49,1.43.49,1.43a.68.68,0,0,1-.15.36"/><path class="cls-42" d="M213.44,181.34a2.08,2.08,0,0,1-1.17-.41,1.08,1.08,0,0,1-.45-.6,1.85,1.85,0,0,1,.3-1.33.31.31,0,0,1,.23-.12,9.28,9.28,0,0,1,.92.15,1,1,0,0,1,.29.21,1.79,1.79,0,0,1,.64,1.45,1.07,1.07,0,0,1-.76.65"/><path class="cls-43" d="M213.41,180.78a8,8,0,0,1-1.12-.34s0-.05,0-.06a1.12,1.12,0,0,1,1.06-.22.48.48,0,0,1,.21.48.24.24,0,0,1-.17.14"/></g><path class="cls-14" d="M206.3,173.39c.31-.07.63-.13.94-.18-.31,0-.63.11-.94.18"/><path class="cls-14" d="M209.29,176.21l.46-.64-.46.64"/><path class="cls-14" d="M213.57,177.56c-.07-.3-.16-.59-.24-.87.08.28.17.57.24.87"/><path class="cls-14" d="M216.54,176.61c-.23-.24-.48-.48-.73-.71.25.23.5.47.73.71"/><path class="cls-14" d="M216.5,173.91a7.66,7.66,0,0,0-.72-.27,7.66,7.66,0,0,1,.72.27"/><path class="cls-14" d="M213.47,171.1a1.74,1.74,0,0,0-.22.19,1.74,1.74,0,0,1,.22-.19"/><path class="cls-14" d="M209.2,169.78l.47.4-.47-.4"/><path class="cls-14" d="M207.21,171a2.93,2.93,0,0,1,2.46-.82,8.16,8.16,0,0,1,3.29.95l.29.16a6.6,6.6,0,0,1,2.53,2.35,2,2,0,0,1,.15,2.1,1.67,1.67,0,0,1-.12.16,3,3,0,0,1-2.48.79,8.08,8.08,0,0,1-3.25-.94l-.33-.18a6.7,6.7,0,0,1-2.51-2.36,2.15,2.15,0,0,1-.13-2.07,20.91,20.91,0,0,1,3.51,1.22c-.2.33.14.86.76,1.18s1.3.33,1.51,0-.14-.86-.77-1.18-1.24-.33-1.47,0a19.92,19.92,0,0,0-3.44-1.32"/><path class="cls-44" d="M206.3,173.39c-6.42,1.41-12.55,5.64-15.06,10.85-1.47,3.06-1.44,5.93-.21,8.18l-.18-.34A16.57,16.57,0,0,1,189,186a16.66,16.66,0,0,1,.12-4.05,16.25,16.25,0,0,1,1.36-4.35c.25-.45.56-1.06.83-1.5,2.94-4.73,9.26-6.61,15.76-5a2,2,0,0,0,.13,2.07c-.31,0-.63.11-.94.18"/><path class="cls-14" d="M209.29,176.21a130.51,130.51,0,0,0-9.43,16.14c-2,4.12-2.7,6.52-2.19,6.82l-.24-.14c-.91-.57-.91-.57-1.35-.89-.87-.67-.88-.68-1.32-1.07a14.87,14.87,0,0,1-1.32-1.3,16.4,16.4,0,0,1-1.32-1.62c-.34-.51-.77-1.2-1.09-1.73-1.23-2.25-1.26-5.12.21-8.18,2.51-5.21,8.64-9.44,15.06-10.85.31-.07.63-.13.94-.18a6.7,6.7,0,0,0,2.51,2.36l-.46.64"/><path class="cls-44" d="M213.57,177.56c1.55,6,1.09,13.44-1.42,18.65-1.74,3.63-4.13,5.42-6.5,5.31-.32,0-.75-.05-1.07-.09a15.56,15.56,0,0,1-1.75-.28,13.89,13.89,0,0,1-1.58-.42,15.38,15.38,0,0,1-1.49-.53c-1-.43-1-.43-1.43-.67l-.66-.36c-.51-.3.21-2.7,2.19-6.82a130.51,130.51,0,0,1,9.43-16.14l.46-.64.33.18a8.08,8.08,0,0,0,3.25.94c.08.28.17.57.24.87"/><path class="cls-14" d="M216.54,176.61c5.84,6.38,6.9,13.46,2.84,18.94-.49.56-1.18,1.29-1.72,1.81a17.8,17.8,0,0,1-3.19,2.22,16.82,16.82,0,0,1-3,1.24,17.65,17.65,0,0,1-2.64.57,16.87,16.87,0,0,1-2.27.15l-.9,0c2.37.11,4.76-1.68,6.5-5.31,2.51-5.21,3-12.69,1.42-18.65-.07-.3-.16-.59-.24-.87a3,3,0,0,0,2.48-.79c.25.23.5.47.73.71"/><path class="cls-44" d="M216.5,173.91a8.42,8.42,0,0,1,4.26,3.62l.26.47a17.33,17.33,0,0,1,1.11,2.66,18.36,18.36,0,0,1,.7,3.38,16.73,16.73,0,0,1-.12,4.06,16.36,16.36,0,0,1-1.36,4.35c-.25.45-.56,1.06-.83,1.5s-.78,1.13-1.14,1.6c4-5.56,3-12.64-2.84-18.94-.23-.24-.48-.48-.73-.71a1.67,1.67,0,0,0,.12-.16,2,2,0,0,0-.15-2.1,7.66,7.66,0,0,1,.72.27"/><path class="cls-14" d="M213.47,171.1c.3-.23.52-.31.65-.23l.32.18c.91.57.91.57,1.35.89a15.33,15.33,0,0,1,1.32,1.07,13.56,13.56,0,0,1,1.32,1.3,16.4,16.4,0,0,1,1.32,1.62c.32.47.72,1.11,1,1.6a8.42,8.42,0,0,0-4.26-3.62,7.66,7.66,0,0,0-.72-.27,6.6,6.6,0,0,0-2.53-2.35,1.74,1.74,0,0,1,.22-.19"/><path class="cls-44" d="M209.2,169.78a5.37,5.37,0,0,0-3.1-1.23l1.19.09a17.48,17.48,0,0,1,1.75.29c1,.24,1.05.25,1.58.41,1,.34,1,.34,1.49.54,1,.43,1,.43,1.43.67l.58.32c-.13-.08-.35,0-.65.23a1.74,1.74,0,0,0-.22.19l-.29-.16a8.16,8.16,0,0,0-3.29-.95l-.47-.4"/><path class="cls-14" d="M192.33,174.73a14.57,14.57,0,0,1,1.88-2,17.79,17.79,0,0,1,3.19-2.23,17.56,17.56,0,0,1,3-1.23,16.48,16.48,0,0,1,2.64-.57,15.34,15.34,0,0,1,2.27-.15h.78a5.37,5.37,0,0,1,3.1,1.23l.47.4a2.93,2.93,0,0,0-2.46.82c-5.94-1.68-11.75-.28-14.88,3.73"/></g></g></g></g></svg>