<svg xmlns="http://www.w3.org/2000/svg" viewBox="0 0 184.55 184.55"><defs><style>.cls-1{fill:#f5f5fa;}.cls-2{fill:#006aff;}.cls-3{fill:#e6e6e6;}.cls-4{opacity:0.08;}</style></defs><g id="ball"><circle class="cls-1" cx="92.27" cy="92.27" r="92.27"/></g><g id="stripes"><path class="cls-2" d="M194.26,66.61q-11.52,96-88.9,161.21h0A92.46,92.46,0,0,1,54.62,121l-.06,0q86.61-33.57,179.11,1.13h0a92.64,92.64,0,0,1-11,70.05q-21.15-87-91.46-139.58a92.64,92.64,0,0,1,63,14" transform="translate(-51.73 -51.73)"/></g><g id="cap"><ellipse class="cls-3" cx="185.59" cy="107.57" rx="15.24" ry="20.04" transform="translate(-73.44 111.01) rotate(-45)"/></g><g id="shadow"><path class="cls-4" d="M162.29,234.46A92.28,92.28,0,1,1,144,51.73q3.41,0,6.75.25a92.29,92.29,0,0,0,11.54,182.48Z" transform="translate(-51.73 -51.73)"/></g></svg>