<svg xmlns="http://www.w3.org/2000/svg" xmlns:xlink="http://www.w3.org/1999/xlink" viewBox="0 0 288 288"><defs><style>.cls-1,.cls-16{fill:none;}.cls-2{fill:#9deaff;}.cls-3{fill:#76ab44;}.cls-4{fill:#368a3a;}.cls-5{fill:#7c5e54;}.cls-6{fill:#6f574e;}.cls-7{fill:#226a27;}.cls-8{fill:#29762d;}.cls-9{fill:#358739;}.cls-10{fill:#388e3c;}.cls-11{fill:#ffad00;}.cls-12{clip-path:url(#clip-path);}.cls-13{fill:#ff6d00;}.cls-14{fill:#ffd23d;}.cls-15{fill:#5d4037;}.cls-16{stroke:#ff6d00;stroke-linecap:round;stroke-miterlimit:10;stroke-width:4px;}</style><clipPath id="clip-path"><path class="cls-1" d="M44.66,220.94c0-59.69,44.54-108.08,99.48-108.08s99.47,48.39,99.47,108.08h-199Z"/></clipPath></defs><g id="background"><rect class="cls-2" width="288" height="162.52"/><rect class="cls-3" y="162.52" width="288" height="125.48"/><path class="cls-4" d="M0,112.24a89.19,89.19,0,0,1,24.33,14.4A89.13,89.13,0,0,1,43,148.12a12.54,12.54,0,0,1,7.58.5,13.29,13.29,0,0,1,7.33,8.09,18.49,18.49,0,0,1,25.26-7.08l113.68-8.08a17.44,17.44,0,0,1,12.64-1,17.25,17.25,0,0,1,9.09,6.82,21.08,21.08,0,0,1,24.51.25,52.91,52.91,0,0,1,44.89-16v30.89H0Z"/><rect class="cls-5" x="199.65" y="124.12" width="19.2" height="40.42"/><rect class="cls-6" x="209.25" y="124.12" width="9.6" height="40.42"/><polygon class="cls-7" points="264.2 125.13 154.31 125.13 174.09 92.54 244.42 92.54 264.2 125.13"/><polyline class="cls-8" points="161.12 100.87 178.45 72.33 240.06 72.33 257.38 100.87"/><polyline class="cls-9" points="172.62 73.31 185.81 51.58 232.7 51.58 245.88 73.31"/><polygon class="cls-10" points="179.82 51.58 238.68 51.58 208.13 13.59 179.82 51.58"/></g><g id="tent"><path class="cls-11" d="M44.66,220.94c0-59.69,44.54-108.08,99.48-108.08s99.47,48.39,99.47,108.08Z"/><g class="cls-12"><rect class="cls-13" x="33.67" y="206.48" width="223.58" height="26.15"/></g><path class="cls-14" d="M168.39,220.94H120.26a29.34,29.34,0,0,0-7.58-7.83,29.74,29.74,0,0,0-11.08-4.84c13.72-21.15,27.45-35.3,41.17-56.45a1.65,1.65,0,0,1,3.12,0l39.36,55.79a21.72,21.72,0,0,0-16.86,13.33Z"/><path class="cls-15" d="M168.39,220.94H120.26l22.93-64.32a1.21,1.21,0,0,1,2.28,0Z"/><path class="cls-15" d="M41.76,213.41l2.08,16.42a.5.5,0,0,1-.93.3l-8-14.26Z"/><line class="cls-16" x1="46.56" y1="218.34" x2="38.29" y2="221.94"/><path class="cls-15" d="M246.65,213.41l-2.08,16.42a.5.5,0,0,0,.94.3l8-14.26Z"/><line class="cls-16" x1="241.85" y1="218.34" x2="250.12" y2="221.94"/></g></svg>