<svg xmlns="http://www.w3.org/2000/svg" viewBox="0 0 288 288"><defs><style>.cls-1{fill:#f77c1e;}.cls-2{fill:#fff;}</style></defs><g id="background"><rect class="cls-1" width="288" height="288"/></g><g id="Layer_1" data-name="Layer 1"><path class="cls-2" d="M171.53,124.41,67.89,233.72a6.73,6.73,0,0,1-9.66.13l-4.08-4.08a6.73,6.73,0,0,1,.13-9.66L163.59,116.47a6.77,6.77,0,0,0,1.76-7c-3.86-11.9,1.5-28.59,14.48-41.57,16.39-16.38,38.68-20.65,49.8-9.52s6.86,33.41-9.52,49.8c-13,13-29.67,18.34-41.57,14.48A6.77,6.77,0,0,0,171.53,124.41Z"/><path class="cls-2" d="M127.3,100.15l-50-50A2.68,2.68,0,0,0,73.51,50l-.67.67A2.7,2.7,0,0,0,73,54.43l38.67,38.66a2.68,2.68,0,0,1,.18,3.79h0a2.68,2.68,0,0,1-3.79-.18L69.42,58a2.7,2.7,0,0,0-3.79-.18l-.27.27a2.7,2.7,0,0,0,.18,3.79l38.67,38.67a2.67,2.67,0,0,1,.18,3.78h0a2.68,2.68,0,0,1-3.79-.18L61.94,65.51a2.7,2.7,0,0,0-3.79-.18l-.27.27a2.68,2.68,0,0,0,.18,3.79l38.67,38.67a2.69,2.69,0,0,1,.18,3.78h0a2.68,2.68,0,0,1-3.79-.18L54.45,73a2.69,2.69,0,0,0-3.78-.18l-.7.7a2.68,2.68,0,0,0,.18,3.79l48.62,48.63-.58-.59,4.2,4.21a6.19,6.19,0,0,0,8.76,0l.8-.8a6.19,6.19,0,0,1,8.87.12L223.16,236.8a6.2,6.2,0,0,0,8.88.12l4.88-4.88a6.2,6.2,0,0,0-.12-8.88L128.86,120.83a6.19,6.19,0,0,1-.12-8.87l.81-.81a6.19,6.19,0,0,0,0-8.76l-3-3"/></g></svg>