<svg xmlns="http://www.w3.org/2000/svg" viewBox="0 0 289.39 287.57"><defs><style>.cls-1{fill:#2997e2;}.cls-2{fill:none;}.cls-2,.cls-4{stroke:#fff;stroke-width:8px;}.cls-2,.cls-4,.cls-5{stroke-miterlimit:10;}.cls-3,.cls-4,.cls-5{fill:#fff;}.cls-5{stroke:#2997e2;stroke-width:4px;}</style></defs><g id="background"><rect class="cls-1" width="289.39" height="287.57"/></g><g id="calendar"><rect class="cls-2" x="56.66" y="105.89" width="174.68" height="126.47"/><rect class="cls-3" x="113.17" y="124.53" width="23.59" height="23.1"/><rect class="cls-3" x="150.49" y="124.53" width="23.59" height="23.1"/><rect class="cls-3" x="187.81" y="124.53" width="23.59" height="23.1"/><rect class="cls-3" x="75.85" y="157.57" width="23.59" height="23.1"/><rect class="cls-3" x="113.17" y="157.57" width="23.59" height="23.1"/><rect class="cls-3" x="150.49" y="157.57" width="23.59" height="23.1"/><rect class="cls-3" x="187.81" y="157.57" width="23.59" height="23.1"/><rect class="cls-3" x="75.85" y="190.62" width="23.59" height="23.1"/><rect class="cls-3" x="113.42" y="190.62" width="23.59" height="23.1"/><rect class="cls-3" x="150.99" y="190.62" width="23.59" height="23.1"/><rect class="cls-3" x="188.56" y="190.62" width="23.59" height="23.1"/><rect class="cls-4" x="56.66" y="80.96" width="174.68" height="24.93"/><rect class="cls-5" x="92.27" y="55.64" width="27.05" height="37.78" rx="13.52"/><rect class="cls-5" x="168.68" y="55.64" width="27.05" height="37.78" rx="13.52"/></g></svg>