<svg xmlns="http://www.w3.org/2000/svg" xmlns:xlink="http://www.w3.org/1999/xlink" viewBox="0 0 288 288"><defs><style>.cls-1{fill:none;}.cls-2{fill:#c5c8f6;}.cls-3{fill:#fac199;}.cls-3,.cls-5{stroke:#f79854;}.cls-13,.cls-14,.cls-3,.cls-5{stroke-miterlimit:10;}.cls-4{clip-path:url(#clip-path);}.cls-5,.cls-6{fill:#f79854;}.cls-5{stroke-width:7px;}.cls-7{fill:#f59db2;}.cls-8{clip-path:url(#clip-path-2);}.cls-9{fill:#f97c8b;}.cls-10{fill:#fac989;}.cls-11{fill:#f9b54e;}.cls-12{fill:#d0e6bb;}.cls-13{fill:#99e6d9;}.cls-13,.cls-14{stroke:#d0e6bb;stroke-linecap:round;stroke-width:14px;}.cls-14,.cls-15{fill:#7a6a57;}</style><clipPath id="clip-path"><path class="cls-1" d="M139.62,266.3,99.27,117a3,3,0,0,1,2.94-3.83H182.9a3,3,0,0,1,2.94,3.83L145.5,266.3A3,3,0,0,1,139.62,266.3Z"/></clipPath><clipPath id="clip-path-2"><circle class="cls-1" cx="142.55" cy="53.46" r="37.7"/></clipPath></defs><g id="background"><rect class="cls-2" width="288" height="288"/></g><g id="cone"><path class="cls-3" d="M139.62,266.3,99.27,117a3,3,0,0,1,2.94-3.83H182.9a3,3,0,0,1,2.94,3.83L145.5,266.3A3,3,0,0,1,139.62,266.3Z"/><g class="cls-4"><line class="cls-5" x1="72.37" y1="113.45" x2="188.46" y2="172.19"/><line class="cls-5" x1="106.77" y1="157.78" x2="185.95" y2="197.84"/><line class="cls-5" x1="104.26" y1="183.43" x2="183.44" y2="223.5"/><line class="cls-5" x1="101.76" y1="209.09" x2="180.94" y2="249.15"/><line class="cls-5" x1="99.25" y1="234.74" x2="178.43" y2="274.81"/><circle class="cls-6" cx="103.13" cy="102.52" r="45.44"/><circle class="cls-6" cx="171.77" cy="99.07" r="48.25"/></g></g><g id="ice_cream" data-name="ice cream"><circle class="cls-7" cx="142.56" cy="53.36" r="37.7"/><g class="cls-8"><path class="cls-9" d="M189,7.65V42.52H143.57v3.66a4.67,4.67,0,0,1-4.67,4.67h0a4.67,4.67,0,0,1-4.67-4.67V38a4.67,4.67,0,0,0-4.68-4.67h0A4.67,4.67,0,0,0,124.87,38V53.18a4.67,4.67,0,0,1-4.67,4.67h0a4.67,4.67,0,0,1-4.67-4.67V42.52H96.07V7.65Z"/></g><circle class="cls-10" cx="103.13" cy="102.88" r="37.07"/><ellipse class="cls-11" cx="91.33" cy="81.46" rx="15.6" ry="6.98" transform="translate(-29.9 64.73) rotate(-33.87)"/><circle class="cls-12" cx="171.42" cy="97.36" r="39.43"/><line class="cls-13" x1="185.95" y1="104.62" x2="185.95" y2="148.15"/><line class="cls-14" x1="163.54" y1="110.03" x2="163.54" y2="139"/><circle class="cls-15" cx="180.26" cy="81.46" r="5.68"/><circle class="cls-15" cx="152.47" cy="102.88" r="5.68"/><circle class="cls-15" cx="185.93" cy="107.46" r="5.68"/></g></svg>