<svg xmlns="http://www.w3.org/2000/svg" xmlns:xlink="http://www.w3.org/1999/xlink" viewBox="0 0 288 288"><defs><style>.cls-1,.cls-16{fill:none;}.cls-2{fill:#b3b3b3;}.cls-3{fill:#59aa5f;}.cls-4{fill:#87d7f5;}.cls-5{clip-path:url(#clip-path);}.cls-6{clip-path:url(#clip-path-2);}.cls-7{clip-path:url(#clip-path-3);}.cls-8{fill:#ebe4dd;}.cls-9{clip-path:url(#clip-path-4);}.cls-10{clip-path:url(#clip-path-5);}.cls-11,.cls-14{fill:#e5c797;}.cls-12,.cls-17{fill:#c77d6b;}.cls-13{fill:#c8996b;}.cls-14{stroke:#c8996b;stroke-width:3px;}.cls-14,.cls-16{stroke-linecap:round;stroke-miterlimit:10;}.cls-15{fill:#f0e6b4;}.cls-16{stroke:#e5c797;stroke-width:2px;}.cls-17{font-size:13.11px;font-family:Castellar;letter-spacing:0em;}</style><clipPath id="clip-path"><rect class="cls-1" width="288" height="288"/></clipPath><clipPath id="clip-path-2"><rect class="cls-1" x="-17.5" y="14.65" width="132.88" height="46.55"/></clipPath><clipPath id="clip-path-3"><rect class="cls-1" x="-17.5" y="14.65" width="132.88" height="46.55"/></clipPath><clipPath id="clip-path-4"><rect class="cls-1" x="201.17" y="42.1" width="125.56" height="47.13"/></clipPath><clipPath id="clip-path-5"><rect class="cls-1" x="201.17" y="42.1" width="125.56" height="47.13"/></clipPath></defs><g id="background"><rect class="cls-2" y="245.9" width="288" height="42.1"/><rect class="cls-3" y="173.13" width="288" height="72.78"/><rect class="cls-4" width="288" height="173.13"/><g class="cls-5"><g id="cloud_2" data-name="cloud 2"><g class="cls-6"><g class="cls-7"><path class="cls-8" d="M81.28,43.82h0a5.61,5.61,0,0,1,5.6-5.61H99.67a5.6,5.6,0,0,0,5.61-5.6V32a5.61,5.61,0,0,0-5.61-5.61H96.09a5.6,5.6,0,0,1-5.6-5.6v-.57a5.61,5.61,0,0,0-5.61-5.61H-2.69a5.61,5.61,0,0,0-5.6,5.61v.57a5.6,5.6,0,0,0,5.6,5.6H.89a5.61,5.61,0,1,1,0,11.21H-11.9a5.6,5.6,0,0,0-5.6,5.6v.58a5.6,5.6,0,0,0,5.6,5.6H11A5.61,5.61,0,0,1,16.6,55v.57a5.6,5.6,0,0,0,5.61,5.6h87.57a5.6,5.6,0,0,0,5.6-5.6V55a5.61,5.61,0,0,0-5.6-5.61H86.88a5.6,5.6,0,0,1-5.6-5.6"/></g></g></g><g id="cloud_1" data-name="cloud 1"><g class="cls-9"><g class="cls-10"><path class="cls-8" d="M303,59.77h0a5.89,5.89,0,0,1,5.89-5.89h6.57a5.89,5.89,0,0,0,0-11.78h-87A5.89,5.89,0,0,0,222.55,48a5.89,5.89,0,0,1-5.89,5.89h-6.57a5.89,5.89,0,0,0,0,11.78h12A5.89,5.89,0,0,1,228,71.55h0a5.89,5.89,0,0,1-5.89,5.89h-15a5.89,5.89,0,0,0,0,11.78h87A5.89,5.89,0,0,0,300,83.33a5.89,5.89,0,0,1,5.89-5.89h15a5.89,5.89,0,0,0,5.89-5.89h0a5.89,5.89,0,0,0-5.89-5.89h-12A5.89,5.89,0,0,1,303,59.77"/></g></g></g></g></g><g id="museum"><rect class="cls-11" x="10.38" y="105.28" width="267.24" height="115.13" rx="2.32"/><rect class="cls-12" x="17.52" y="123.4" width="43.04" height="74.5" rx="2.1"/><rect class="cls-12" x="227.2" y="123.4" width="43.04" height="74.5" rx="2.1" transform="translate(497.44 321.29) rotate(-180)"/><rect class="cls-13" x="7.42" y="105.28" width="273.15" height="8.85" rx="3.38"/><rect class="cls-12" x="67.94" y="88.2" width="152.12" height="132.21"/><path class="cls-11" d="M67.94,88.2H220.06a0,0,0,0,1,0,0v30.33a3,3,0,0,1-3,3H71a3,3,0,0,1-3-3V88.2A0,0,0,0,1,67.94,88.2Z"/><rect class="cls-13" x="74.59" y="95.61" width="138.81" height="18.55" rx="2.05"/><g id="stairs"><path class="cls-11" d="M218,245.9H70a2.09,2.09,0,0,1-2.09-2.09v-27H220.06v27A2.09,2.09,0,0,1,218,245.9Z"/><line class="cls-14" x1="70.66" y1="226.48" x2="217.34" y2="226.48"/><line class="cls-14" x1="70.66" y1="236.19" x2="217.34" y2="236.19"/></g><g id="doors"><path class="cls-13" d="M113.42,183.66h61.16a2.08,2.08,0,0,1,2.08,2.08v31a0,0,0,0,1,0,0H111.34a0,0,0,0,1,0,0v-31A2.08,2.08,0,0,1,113.42,183.66Z"/><path class="cls-15" d="M119.14,188.87h49.73a2.08,2.08,0,0,1,2.08,2.08v25.82a0,0,0,0,1,0,0H117.06a0,0,0,0,1,0,0V191A2.08,2.08,0,0,1,119.14,188.87Z"/><line class="cls-16" x1="135.02" y1="190.24" x2="135.02" y2="215.4"/><line class="cls-16" x1="152.98" y1="190.24" x2="152.98" y2="215.4"/></g><g id="collumns"><g id="column"><rect class="cls-11" x="80.23" y="121.58" width="15.64" height="95.19"/><rect class="cls-13" x="78.24" y="211.59" width="19.62" height="5.17" rx="1.97"/><rect class="cls-13" x="78.24" y="121.58" width="19.62" height="5.17" rx="1.97"/></g><g id="column-2" data-name="column"><rect class="cls-11" x="117.37" y="121.58" width="15.64" height="95.19"/><rect class="cls-13" x="115.38" y="211.59" width="19.62" height="5.17" rx="1.97"/><rect class="cls-13" x="115.38" y="121.58" width="19.62" height="5.17" rx="1.97"/></g><g id="column-3" data-name="column"><rect class="cls-11" x="154.51" y="121.58" width="15.64" height="95.19"/><rect class="cls-13" x="152.52" y="211.59" width="19.62" height="5.17" rx="1.97"/><rect class="cls-13" x="152.52" y="121.58" width="19.62" height="5.17" rx="1.97"/></g><g id="column-4" data-name="column"><rect class="cls-11" x="191.64" y="121.58" width="15.64" height="95.19"/><rect class="cls-13" x="189.66" y="211.59" width="19.62" height="5.17" rx="1.97"/><rect class="cls-13" x="189.66" y="121.58" width="19.62" height="5.17" rx="1.97"/></g></g><text class="cls-17" transform="translate(111.86 109.02)">Museum</text><path class="cls-13" d="M224.64,87,145.57,59.42a4.83,4.83,0,0,0-3.14,0L63.36,87a2.62,2.62,0,0,0,.86,5.09H223.78A2.62,2.62,0,0,0,224.64,87Z"/><path class="cls-11" d="M220.06,92.13,145.51,67.89a4.87,4.87,0,0,0-3,0L67.94,92.13Z"/></g></svg>