<svg xmlns="http://www.w3.org/2000/svg" xmlns:xlink="http://www.w3.org/1999/xlink" viewBox="0 0 288 288"><defs><style>.cls-1,.cls-16{fill:none;}.cls-2{fill:#b3b3b3;}.cls-3{fill:#59aa5f;}.cls-4{fill:#87d7f5;}.cls-5{clip-path:url(#clip-path);}.cls-6{clip-path:url(#clip-path-2);}.cls-7{clip-path:url(#clip-path-3);}.cls-8{fill:#ebe4dd;}.cls-9{clip-path:url(#clip-path-4);}.cls-10{clip-path:url(#clip-path-5);}.cls-11,.cls-14{fill:#e5c797;}.cls-12{fill:#c77d6b;}.cls-13{fill:#c8996b;}.cls-14{stroke:#c8996b;stroke-width:3px;}.cls-14,.cls-16{stroke-linecap:round;stroke-miterlimit:10;}.cls-15{fill:#f0e6b4;}.cls-16{stroke:#e5c797;stroke-width:2px;}</style><clipPath id="clip-path"><rect class="cls-1" width="288" height="288"/></clipPath><clipPath id="clip-path-2"><rect class="cls-1" x="-17.5" y="14.65" width="132.88" height="46.55"/></clipPath><clipPath id="clip-path-3"><rect class="cls-1" x="-17.5" y="14.65" width="132.88" height="46.55"/></clipPath><clipPath id="clip-path-4"><rect class="cls-1" x="201.17" y="42.1" width="125.56" height="47.13"/></clipPath><clipPath id="clip-path-5"><rect class="cls-1" x="201.17" y="42.1" width="125.56" height="47.13"/></clipPath></defs><g id="background"><rect class="cls-2" y="245.9" width="288" height="42.1"/><rect class="cls-3" y="173.13" width="288" height="72.78"/><rect class="cls-4" width="288" height="173.13"/><g class="cls-5"><g id="cloud_2" data-name="cloud 2"><g class="cls-6"><g class="cls-7"><path class="cls-8" d="M81.28,43.82h0a5.61,5.61,0,0,1,5.6-5.61H99.67a5.6,5.6,0,0,0,5.61-5.6V32a5.61,5.61,0,0,0-5.61-5.61H96.09a5.6,5.6,0,0,1-5.6-5.6v-.57a5.61,5.61,0,0,0-5.61-5.61H-2.69a5.61,5.61,0,0,0-5.6,5.61v.57a5.6,5.6,0,0,0,5.6,5.6H.89a5.61,5.61,0,1,1,0,11.21H-11.9a5.6,5.6,0,0,0-5.6,5.6v.58a5.6,5.6,0,0,0,5.6,5.6H11A5.61,5.61,0,0,1,16.6,55v.57a5.6,5.6,0,0,0,5.61,5.6h87.57a5.6,5.6,0,0,0,5.6-5.6V55a5.61,5.61,0,0,0-5.6-5.61H86.88a5.6,5.6,0,0,1-5.6-5.6"/></g></g></g><g id="cloud_1" data-name="cloud 1"><g class="cls-9"><g class="cls-10"><path class="cls-8" d="M303,59.77h0a5.89,5.89,0,0,1,5.89-5.89h6.57a5.89,5.89,0,0,0,0-11.78h-87A5.89,5.89,0,0,0,222.55,48a5.89,5.89,0,0,1-5.89,5.89h-6.57a5.89,5.89,0,0,0,0,11.78h12A5.89,5.89,0,0,1,228,71.55h0a5.89,5.89,0,0,1-5.89,5.89h-15a5.89,5.89,0,0,0,0,11.78h87A5.89,5.89,0,0,0,300,83.33a5.89,5.89,0,0,1,5.89-5.89h15a5.89,5.89,0,0,0,5.89-5.89h0a5.89,5.89,0,0,0-5.89-5.89h-12A5.89,5.89,0,0,1,303,59.77"/></g></g></g></g></g><g id="museum"><rect class="cls-11" x="10.38" y="105.28" width="267.24" height="115.13" rx="2.32"/><rect class="cls-12" x="17.52" y="123.4" width="43.04" height="74.5" rx="2.1"/><rect class="cls-12" x="227.2" y="123.4" width="43.04" height="74.5" rx="2.1" transform="translate(497.44 321.29) rotate(-180)"/><rect class="cls-13" x="7.42" y="105.28" width="273.15" height="8.85" rx="3.38"/><rect class="cls-12" x="67.94" y="88.2" width="152.12" height="132.21"/><path class="cls-11" d="M67.94,88.2H220.06a0,0,0,0,1,0,0v30.33a3,3,0,0,1-3,3H71a3,3,0,0,1-3-3V88.2A0,0,0,0,1,67.94,88.2Z"/><rect class="cls-13" x="74.59" y="95.61" width="138.81" height="18.55" rx="2.05"/><g id="stairs"><path class="cls-11" d="M218,245.9H70a2.09,2.09,0,0,1-2.09-2.09v-27H220.06v27A2.09,2.09,0,0,1,218,245.9Z"/><line class="cls-14" x1="70.66" y1="226.48" x2="217.34" y2="226.48"/><line class="cls-14" x1="70.66" y1="236.19" x2="217.34" y2="236.19"/></g><g id="doors"><path class="cls-13" d="M113.42,183.66h61.16a2.08,2.08,0,0,1,2.08,2.08v31a0,0,0,0,1,0,0H111.34a0,0,0,0,1,0,0v-31A2.08,2.08,0,0,1,113.42,183.66Z"/><path class="cls-15" d="M119.14,188.87h49.73a2.08,2.08,0,0,1,2.08,2.08v25.82a0,0,0,0,1,0,0H117.06a0,0,0,0,1,0,0V191A2.08,2.08,0,0,1,119.14,188.87Z"/><line class="cls-16" x1="135.02" y1="190.24" x2="135.02" y2="215.4"/><line class="cls-16" x1="152.98" y1="190.24" x2="152.98" y2="215.4"/></g><g id="collumns"><g id="column"><rect class="cls-11" x="80.23" y="121.58" width="15.64" height="95.19"/><rect class="cls-13" x="78.24" y="211.59" width="19.62" height="5.17" rx="1.97"/><rect class="cls-13" x="78.24" y="121.58" width="19.62" height="5.17" rx="1.97"/></g><g id="column-2" data-name="column"><rect class="cls-11" x="117.37" y="121.58" width="15.64" height="95.19"/><rect class="cls-13" x="115.38" y="211.59" width="19.62" height="5.17" rx="1.97"/><rect class="cls-13" x="115.38" y="121.58" width="19.62" height="5.17" rx="1.97"/></g><g id="column-3" data-name="column"><rect class="cls-11" x="154.51" y="121.58" width="15.64" height="95.19"/><rect class="cls-13" x="152.52" y="211.59" width="19.62" height="5.17" rx="1.97"/><rect class="cls-13" x="152.52" y="121.58" width="19.62" height="5.17" rx="1.97"/></g><g id="column-4" data-name="column"><rect class="cls-11" x="191.64" y="121.58" width="15.64" height="95.19"/><rect class="cls-13" x="189.66" y="211.59" width="19.62" height="5.17" rx="1.97"/><rect class="cls-13" x="189.66" y="121.58" width="19.62" height="5.17" rx="1.97"/></g></g><path class="cls-12" d="M112,99.66h2.75c.23.51.42.93.59,1.25s.35.7.58,1.14l1.8,3.33a16.75,16.75,0,0,0,1.12,1.81c.24-.4.64-1.12,1.17-2.15l1.64-3.08a23,23,0,0,0,1.08-2.3h2.74v.06l-1.71.24c0,.37,0,.75,0,1.12s0,1.2.11,2.41.16,2.35.27,3.39a9.3,9.3,0,0,0,.29,1.86l1.18.22V109h-4.39V109l1.52-.22a11.48,11.48,0,0,0,.06-1.32c0-.3,0-.69,0-1.18s0-1-.1-1.69-.09-1.22-.16-1.75a6.75,6.75,0,0,0-.18-1.09c-.2.32-.41.69-.62,1.1l-2.49,4.67c-.4.76-.66,1.31-.79,1.63h-.09c-.09-.19-.24-.51-.46-.94s-.39-.77-.53-1l-2.08-3.86c-.36-.66-.65-1.19-.88-1.58,0,.17-.07.56-.13,1.17s-.12,1.26-.17,2-.1,1.31-.13,1.81,0,.89,0,1.18,0,.49,0,.87l1.22.24V109H112V109l1.22-.24a13.31,13.31,0,0,0,.24-1.77q.15-1.5.27-3.09c.08-1.06.12-1.83.12-2.3q0-.25,0-.78a2.56,2.56,0,0,0-.72-.82L112,99.72Zm1.59.24,4.63,8.55.22-.44-4.4-8.11Zm9.32.42-.37.75.57,7.7h.46l-.63-8.45Z"/><path class="cls-12" d="M127.41,106.31v-3.56q0-1.2-.15-2.82l-1.34-.21v-.06h4.67v.06l-1.69.21c0,.3-.08.66-.1,1.08s-.05.86-.07,1.33,0,.86,0,1.14v2.63a2.76,2.76,0,0,0,.38,1.52,2.06,2.06,0,0,0,1,.81,4,4,0,0,0,1.38.23,2.93,2.93,0,0,0,2-.65,2.7,2.7,0,0,0,.74-2.11v-2.74c0-.49,0-1.06-.05-1.73s-.08-1.16-.13-1.51l-1.69-.21v-.06H137v.06l-1.3.21a9.36,9.36,0,0,0-.14,1.39c0,.64-.05,1.19-.05,1.62v3.11a3.73,3.73,0,0,1-.17,1.23,2.2,2.2,0,0,1-.54.87,3.42,3.42,0,0,1-.52.42,3.06,3.06,0,0,1-.7.3,5,5,0,0,1-.92.19c-.33,0-.75,0-1.24,0a7.21,7.21,0,0,1-2.09-.27,2.72,2.72,0,0,1-1.4-.89A2.53,2.53,0,0,1,127.41,106.31Zm3.65,2.64v-.09a4.22,4.22,0,0,1-1.58-.36,2.3,2.3,0,0,1-1-.92,2.71,2.71,0,0,1-.38-1.49v-6.2h-.45v6.42a2.31,2.31,0,0,0,.83,1.87A4.37,4.37,0,0,0,131.06,109Zm.84-.09V109a4.84,4.84,0,0,0,1.31-.25,2.46,2.46,0,0,0,.91-.56,2.3,2.3,0,0,0,.54-.91,4,4,0,0,0,.18-1.26V99.89h-.45V106a3.17,3.17,0,0,1-.59,2A2.63,2.63,0,0,1,131.9,108.86Z"/><path class="cls-12" d="M137.59,106.78l.49,1.58a4.05,4.05,0,0,0,.85.27,3.46,3.46,0,0,0,.85.09,2.3,2.3,0,0,0,.88-.16,1.91,1.91,0,0,0,1-1,1.66,1.66,0,0,0,.13-.64,1.43,1.43,0,0,0-.43-1.06,9.36,9.36,0,0,0-1.43-1.12,10.3,10.3,0,0,1-1.46-1.13,3.19,3.19,0,0,1-.59-.81,2,2,0,0,1-.19-.9,2.25,2.25,0,0,1,.3-1.1,2.37,2.37,0,0,1,.93-.9,3,3,0,0,1,1.54-.37c.28,0,.57,0,.88,0l.65,0h.29l.21,0,.17,0,0,2.19h-.08l-.4-1.48a4,4,0,0,0-1.55-.39,2.25,2.25,0,0,0-1,.21,1.67,1.67,0,0,0-.68.57,1.37,1.37,0,0,0-.25.82,1.31,1.31,0,0,0,.33.86,4.11,4.11,0,0,0,.89.77c.38.26.78.52,1.22.8a7.12,7.12,0,0,1,1,.82,2.39,2.39,0,0,1,.76,1.76,2.72,2.72,0,0,1-.29,1.16,2.48,2.48,0,0,1-1,1,3.43,3.43,0,0,1-1.8.42c-.26,0-.58,0-.95,0s-.65,0-.82,0H138l-.21,0-.17,0-.1-2.26Zm3.13-7.11h-.21a2.93,2.93,0,0,0-1.29.28,2.32,2.32,0,0,0-.95.8,2.08,2.08,0,0,0-.34,1.17,2.14,2.14,0,0,0,.71,1.52,6.26,6.26,0,0,0,.59.51c.18.14.45.33.82.58l.88.61a4.56,4.56,0,0,1,.54.46,1.76,1.76,0,0,1,.31,2.22,2,2,0,0,1-.77.74,2.34,2.34,0,0,1-1.18.29v.07a2.86,2.86,0,0,0,1.39-.27,2.32,2.32,0,0,0,.94-.8,1.85,1.85,0,0,0,.32-1,2.19,2.19,0,0,0-.15-.83,2.33,2.33,0,0,0-.54-.76,5.51,5.51,0,0,0-.8-.63l-1.18-.8a7.13,7.13,0,0,1-.87-.67,2,2,0,0,1-.67-1.47,1.82,1.82,0,0,1,.61-1.31,2.63,2.63,0,0,1,1.84-.64Z"/><path class="cls-12" d="M143.51,99.72v-.06h6.82l.16,2h-.11l-.46-1.57c-.36,0-.77,0-1.22,0a9,9,0,0,0-2,.17,20.61,20.61,0,0,0-.13,2.37c0,.55,0,1,0,1.35l1.29,0a12.74,12.74,0,0,0,1.49-.08l.29-1.09h.11v2.73h-.11l-.3-1.15a9.28,9.28,0,0,0-1.23-.07,14.36,14.36,0,0,0-1.54.08,10.14,10.14,0,0,0,0,1.45q0,.92,0,1.5c0,.4,0,.74.08,1a7.12,7.12,0,0,0,2,.24,10.5,10.5,0,0,0,1.23-.06l.51-1.54h.09l-.14,2h-6.89V109l1.53-.22a7.29,7.29,0,0,0,.09-.8c0-.36.06-.76.08-1.21s0-.82,0-1.12,0-.56,0-.79v-1.61c0-.21,0-.5,0-.88s0-.77,0-1.17-.07-.81-.11-1.22Zm2,.18v8.87h.44V99.9Z"/><path class="cls-12" d="M152.66,106.31v-3.56q0-1.2-.15-2.82l-1.34-.21v-.06h4.67v.06l-1.69.21c-.05.3-.08.66-.11,1.08s0,.86-.06,1.33,0,.86,0,1.14v2.63a2.76,2.76,0,0,0,.38,1.52,2.08,2.08,0,0,0,1,.81,4.08,4.08,0,0,0,1.38.23,3,3,0,0,0,2-.65,2.7,2.7,0,0,0,.73-2.11v-2.74c0-.49,0-1.06-.05-1.73s-.07-1.16-.12-1.51l-1.69-.21v-.06h4.64v.06l-1.3.21a9.36,9.36,0,0,0-.14,1.39c0,.64-.05,1.19-.05,1.62v3.11a4,4,0,0,1-.17,1.23,2.45,2.45,0,0,1-.54.87,4,4,0,0,1-.52.42,3.06,3.06,0,0,1-.7.3,5,5,0,0,1-.92.19c-.34,0-.75,0-1.24,0a7.21,7.21,0,0,1-2.09-.27,2.72,2.72,0,0,1-1.4-.89A2.53,2.53,0,0,1,152.66,106.31Zm3.65,2.64v-.09a4.22,4.22,0,0,1-1.58-.36,2.3,2.3,0,0,1-1-.92,2.71,2.71,0,0,1-.38-1.49v-6.2h-.45v6.42a2.28,2.28,0,0,0,.83,1.87A4.37,4.37,0,0,0,156.31,109Zm.84-.09V109a4.69,4.69,0,0,0,1.3-.25,2.42,2.42,0,0,0,.92-.56,2.3,2.3,0,0,0,.54-.91,4,4,0,0,0,.18-1.26V99.89h-.45V106a3.17,3.17,0,0,1-.59,2A2.63,2.63,0,0,1,157.15,108.86Z"/><path class="cls-12" d="M162.49,99.66h2.75c.23.51.42.93.59,1.25s.36.7.59,1.14l1.79,3.33a16.75,16.75,0,0,0,1.12,1.81c.24-.4.64-1.12,1.17-2.15l1.64-3.08a23,23,0,0,0,1.08-2.3H176v.06l-1.71.24c0,.37,0,.75,0,1.12s0,1.2.11,2.41.16,2.35.27,3.39a9.3,9.3,0,0,0,.29,1.86l1.18.22V109h-4.39V109l1.53-.22c0-.33,0-.77,0-1.32,0-.3,0-.69,0-1.18s-.05-1-.09-1.69-.1-1.22-.17-1.75a6.75,6.75,0,0,0-.18-1.09c-.2.32-.41.69-.62,1.1l-2.49,4.67c-.4.76-.66,1.31-.79,1.63h-.09c-.09-.19-.24-.51-.46-.94s-.39-.77-.53-1l-2.08-3.86c-.36-.66-.65-1.19-.88-1.58,0,.17-.07.56-.13,1.17s-.12,1.26-.17,2-.1,1.31-.12,1.81,0,.89,0,1.18,0,.49,0,.87l1.22.24V109h-3.15V109l1.22-.24a13.31,13.31,0,0,0,.24-1.77c.11-1,.19-2,.27-3.09s.12-1.83.12-2.3q0-.25,0-.78a2.56,2.56,0,0,0-.72-.82l-1.08-.24Zm1.59.24,4.63,8.55.22-.44-4.4-8.11Zm9.32.42-.37.75.57,7.7h.46l-.63-8.45Z"/><path class="cls-13" d="M224.64,87,145.57,59.42a4.83,4.83,0,0,0-3.14,0L63.36,87a2.62,2.62,0,0,0,.86,5.09H223.78A2.62,2.62,0,0,0,224.64,87Z"/><path class="cls-11" d="M220.06,92.13,145.51,67.89a4.87,4.87,0,0,0-3,0L67.94,92.13Z"/></g></svg>