<svg xmlns="http://www.w3.org/2000/svg" viewBox="0 0 288 288"><defs><style>.cls-1{fill:#fec00f;}.cls-2{fill:none;stroke:#2c5871;stroke-linecap:round;stroke-miterlimit:10;stroke-width:3px;}.cls-3{fill:#afcedb;}.cls-4{fill:#5fb7bf;}.cls-5{fill:#c7e9f9;}.cls-6{fill:#4d8c94;}</style></defs><g id="background"><rect class="cls-1" width="288" height="288"/></g><g id="bag"><g id="bag-2" data-name="bag"><path class="cls-2" d="M113.29,111.5v-20c0-18.16,15.53-32.88,34.68-32.88s34.67,14.72,34.67,32.88v20"/><polygon class="cls-3" points="196.96 209.83 219.12 201.35 219.12 88.67 196.96 97.15 196.96 209.83"/><polygon class="cls-3" points="105.22 209.83 83.07 201.35 83.07 88.67 105.22 97.15 105.22 209.83"/><polygon class="cls-4" points="83.07 88.67 219.12 88.67 196.96 97.15 204.93 103.21 68.89 103.21 94.14 95.94 83.07 88.67"/><rect class="cls-5" x="68.89" y="103.21" width="136.05" height="109.95"/><ellipse class="cls-6" cx="105.12" cy="116.75" rx="5.51" ry="3.77"/><ellipse class="cls-6" cx="174.47" cy="116.75" rx="5.51" ry="3.77"/><path class="cls-2" d="M105.12,116.8v-20c0-18.15,15.52-32.87,34.68-32.87s34.67,14.72,34.67,32.87v20"/><polygon class="cls-6" points="94.14 95.94 94.14 103.21 68.89 103.21 94.14 95.94"/><polygon class="cls-6" points="196.96 97.15 204.93 103.21 196.96 103.21 196.96 97.15"/></g></g></svg>