<svg xmlns="http://www.w3.org/2000/svg" xmlns:xlink="http://www.w3.org/1999/xlink" viewBox="0 0 288 288"><defs><style>.cls-1,.cls-6{fill:none;}.cls-2{fill:#cec4ff;}.cls-3{fill:#6ea7e0;}.cls-4{fill:#5c95ce;}.cls-4,.cls-6{stroke:#5c8bce;}.cls-4,.cls-5,.cls-6{stroke-miterlimit:10;stroke-width:8px;}.cls-5{fill:#a5d2f0;stroke:#87b4f0;}.cls-5,.cls-6{stroke-linecap:round;}.cls-7{fill:#edb379;}.cls-8{clip-path:url(#clip-path);}.cls-9{fill:#ffe250;}.cls-10{fill:#b4a43c;}.cls-11{fill:#643c46;}.cls-12{fill:#3e4033;}</style><clipPath id="clip-path"><rect class="cls-1" x="130.44" y="125.89" width="82.8" height="49.22"/></clipPath></defs><g id="background"><rect class="cls-2" width="288" height="139.54"/></g><g id="water"><rect class="cls-3" y="139.54" width="288" height="148.46"/><line class="cls-4" y1="144" x2="288" y2="144"/><line class="cls-5" x1="60.34" y1="198.27" x2="127.41" y2="198.27"/><line class="cls-6" x1="165.31" y1="198.27" x2="244.51" y2="198.27"/><line class="cls-6" x1="97.47" y1="238.44" x2="147.78" y2="238.44"/><line class="cls-6" x1="144" y1="258.91" x2="174.68" y2="258.91"/><line class="cls-5" x1="134.42" y1="217.98" x2="161.14" y2="217.98"/><line class="cls-5" x1="47.26" y1="217.98" x2="87.62" y2="217.98"/></g><g id="person"><path class="cls-7" d="M47.83,176.89,86.74,158l26.78-60.63a14,14,0,0,1,6.31-8.85,13.22,13.22,0,0,1,6.82-1.76c34.95-2.78,68.9-6.56,103.84-9.34L246.4,87.46l6.32,9.6a5.38,5.38,0,0,1-5.06,4.3l-16.17-8.59.26,5.81,8.59,6.31a2.35,2.35,0,0,1-2.28,2.53l-16.92-7.58-8.85-7.07L142.06,112l-19.7,64.92Z"/><g class="cls-8"><rect class="cls-7" x="136.64" y="136.88" width="71.78" height="57.06" rx="26.73" transform="translate(-65.48 143.61) rotate(-38.56)"/><path class="cls-9" d="M154.75,143.1l7.16-5.71a26.72,26.72,0,0,1,37.56,4.24l2.25,2.82A26.73,26.73,0,0,1,197.48,182l-7.16,5.71"/><rect class="cls-10" x="171.53" y="134.02" width="9.16" height="57.06" transform="translate(-62.92 145.22) rotate(-38.56)"/><ellipse class="cls-11" cx="164.41" cy="157.34" rx="6.73" ry="8.05" transform="translate(-62.23 136.79) rotate(-38.56)"/><ellipse class="cls-11" cx="178.59" cy="175.12" rx="6.73" ry="8.05" transform="translate(-70.22 149.5) rotate(-38.56)"/></g><line class="cls-6" x1="134.23" y1="178.95" x2="206.48" y2="178.95"/><line class="cls-6" x1="36.21" y1="178.95" x2="124.13" y2="178.95"/><rect class="cls-9" x="201.31" y="78.92" width="5.43" height="16.65" transform="translate(-14.49 48.67) rotate(-13.14)"/><path class="cls-12" d="M32.25,56.18a13.34,13.34,0,0,1,1.22-2.32,8.81,8.81,0,0,1,2-2.07,11.26,11.26,0,0,1,5.3-2,15.31,15.31,0,0,1,5.44.26A12.46,12.46,0,0,1,51,52.29h0l-.54.12a13.84,13.84,0,0,1,4-4.76,16.9,16.9,0,0,1,5.68-2.82,12.54,12.54,0,0,1,6.58-.18,12.17,12.17,0,0,1,5.41,3.14l-.32,1c-1.12,0-2.07-.22-3-.3a22.14,22.14,0,0,0-2.63-.17,19.58,19.58,0,0,0-5,.66,34,34,0,0,0-5,1.7c-1.66.7-3.3,1.54-5.06,2.47l-.43.23-.12-.11h0c-1.71-.08-3.29-.15-4.85-.11a32.47,32.47,0,0,0-4.55.38,19.2,19.2,0,0,0-4.15,1.12,14,14,0,0,0-2,1c-.69.38-1.34.9-2.24,1.31Z"/><path class="cls-12" d="M66.12,64.07A5.4,5.4,0,0,1,67.84,62a6.1,6.1,0,0,1,2.69-1,7.81,7.81,0,0,1,5.24,1.08h0l-.55.13A8.22,8.22,0,0,1,77.42,60a9.14,9.14,0,0,1,2.86-1.34,6.57,6.57,0,0,1,3.27-.16,7.11,7.11,0,0,1,2.79,1.33l-.32,1a21.78,21.78,0,0,0-2.73-.47,7.86,7.86,0,0,0-2.49.26A14.61,14.61,0,0,0,76,62.89l-.23.16-.32,0h0a15.46,15.46,0,0,0-4.6,0,7.89,7.89,0,0,0-2,.58,14.68,14.68,0,0,0-2,1.27Z"/></g></svg>