<svg xmlns="http://www.w3.org/2000/svg" xmlns:xlink="http://www.w3.org/1999/xlink" viewBox="0 0 288 288"><defs><style>.cls-1,.cls-15,.cls-16,.cls-4,.cls-7{fill:none;}.cls-2{fill:#83e8ff;}.cls-3{fill:#666;}.cls-4{stroke:#e6e6e6;}.cls-10,.cls-11,.cls-15,.cls-16,.cls-4,.cls-7{stroke-miterlimit:10;stroke-width:4px;}.cls-5{fill:#e6e6e6;}.cls-6{fill:#938493;}.cls-10,.cls-7{stroke:#9dc6fb;}.cls-10,.cls-11,.cls-15,.cls-16,.cls-7{stroke-linecap:round;}.cls-8{clip-path:url(#clip-path);}.cls-9{fill:#29abe2;}.cls-10{fill:#9dc6fb;}.cls-11,.cls-14{fill:#d9d2cc;}.cls-11,.cls-15{stroke:#d9d2cc;}.cls-12{fill:#d6c8b6;}.cls-13{fill:#bfa993;}.cls-16{stroke:#bfa993;}.cls-17{fill:#00a99d;}.cls-18{fill:#333;}.cls-19{fill:#39b54a;}.cls-20{fill:#f7931e;}.cls-21{fill:#fff;}.cls-22{fill:#fbb03b;}</style><clipPath id="clip-path"><rect class="cls-1" width="288" height="288"/></clipPath></defs><g id="background"><rect id="sky" class="cls-2" width="288" height="153.8"/><g id="road"><rect class="cls-3" y="166.68" width="288" height="121.32"/><line class="cls-4" y1="239.82" x2="49.21" y2="239.82"/><line class="cls-4" x1="73.94" y1="239.82" x2="132.3" y2="239.82"/><line class="cls-4" x1="157.04" y1="239.82" x2="215.39" y2="239.82"/><line class="cls-4" x1="240.13" y1="239.82" x2="288" y2="239.82"/><rect class="cls-5" y="150.39" width="288" height="16.29"/></g><g id="buildings"><polygon class="cls-6" points="145.84 150.39 89.38 150.39 89.38 68.12 145.84 40.12 145.84 150.39"/><line class="cls-7" x1="112.52" y1="65.16" x2="112.52" y2="72.07"/><line class="cls-7" x1="122.71" y1="65.16" x2="122.71" y2="72.07"/><line class="cls-7" x1="132.89" y1="65.16" x2="132.89" y2="72.07"/><line class="cls-7" x1="102.33" y1="82.76" x2="102.33" y2="89.67"/><line class="cls-7" x1="112.52" y1="82.76" x2="112.52" y2="89.67"/><line class="cls-7" x1="122.71" y1="82.76" x2="122.71" y2="89.67"/><line class="cls-7" x1="132.89" y1="82.76" x2="132.89" y2="89.67"/><line class="cls-7" x1="102.33" y1="100.36" x2="102.33" y2="107.28"/><line class="cls-7" x1="112.52" y1="100.36" x2="112.52" y2="107.28"/><line class="cls-7" x1="122.71" y1="100.36" x2="122.71" y2="107.28"/><line class="cls-7" x1="132.89" y1="100.36" x2="132.89" y2="107.28"/><line class="cls-7" x1="102.33" y1="117.97" x2="102.33" y2="124.88"/><line class="cls-7" x1="112.52" y1="117.97" x2="112.52" y2="124.88"/><line class="cls-7" x1="122.71" y1="117.97" x2="122.71" y2="124.88"/><line class="cls-7" x1="132.89" y1="117.97" x2="132.89" y2="124.88"/><line class="cls-7" x1="102.33" y1="135.57" x2="102.33" y2="142.48"/><line class="cls-7" x1="112.52" y1="135.57" x2="112.52" y2="142.48"/><line class="cls-7" x1="122.71" y1="135.57" x2="122.71" y2="142.48"/><line class="cls-7" x1="132.89" y1="135.57" x2="132.89" y2="142.48"/><g class="cls-8"><path class="cls-9" d="M0,13.59H56.31a5.08,5.08,0,0,1,5.08,5.08V150.39a0,0,0,0,1,0,0H0a0,0,0,0,1,0,0V13.59A0,0,0,0,1,0,13.59Z"/><line class="cls-10" x1="-2.66" y1="27.23" x2="49.21" y2="27.23"/><line class="cls-10" x1="-2.66" y1="43.2" x2="49.21" y2="43.2"/><line class="cls-10" x1="-2.66" y1="59.17" x2="49.21" y2="59.17"/><line class="cls-10" x1="-2.66" y1="75.14" x2="49.21" y2="75.14"/><line class="cls-10" x1="-2.66" y1="91.11" x2="49.21" y2="91.11"/><line class="cls-10" x1="-2.66" y1="107.08" x2="49.21" y2="107.08"/><line class="cls-10" x1="-2.66" y1="123.05" x2="49.21" y2="123.05"/><line class="cls-10" x1="-2.66" y1="139.02" x2="49.21" y2="139.02"/><line class="cls-11" x1="269.31" y1="11.43" x2="269.31" y2="54.8"/><circle class="cls-12" cx="269.31" cy="69.34" r="37.92"/><rect class="cls-13" x="162.26" y="73.08" width="125.74" height="63.66"/><rect class="cls-14" x="157.04" y="69.34" width="135.08" height="11.03"/><rect class="cls-14" x="157.04" y="131.95" width="135.08" height="18.44"/><line class="cls-15" x1="180.82" y1="84.57" x2="180.82" y2="127.95"/><line class="cls-15" x1="192.84" y1="84.57" x2="192.84" y2="127.95"/><line class="cls-15" x1="204.86" y1="84.57" x2="204.86" y2="127.95"/><line class="cls-15" x1="216.88" y1="84.57" x2="216.88" y2="127.95"/><line class="cls-15" x1="228.89" y1="84.57" x2="228.89" y2="127.95"/><line class="cls-15" x1="240.91" y1="84.57" x2="240.91" y2="127.95"/><line class="cls-15" x1="252.93" y1="84.57" x2="252.93" y2="127.95"/><line class="cls-15" x1="264.95" y1="84.57" x2="264.95" y2="127.95"/><line class="cls-15" x1="276.96" y1="84.57" x2="276.96" y2="127.95"/><line class="cls-15" x1="288.98" y1="84.57" x2="288.98" y2="127.95"/><line class="cls-16" x1="239.26" y1="62.55" x2="239.26" y2="66.03"/><line class="cls-16" x1="251.28" y1="62.55" x2="251.28" y2="66.03"/><line class="cls-16" x1="263.3" y1="62.55" x2="263.3" y2="66.03"/><line class="cls-16" x1="275.31" y1="62.55" x2="275.31" y2="66.03"/><line class="cls-16" x1="287.33" y1="62.55" x2="287.33" y2="66.03"/></g><path class="cls-17" d="M52.67,56.41H90.78a5,5,0,0,1,5,5v89a0,0,0,0,1,0,0H47.66a0,0,0,0,1,0,0v-89A5,5,0,0,1,52.67,56.41Z"/><line class="cls-7" x1="56.44" y1="62.51" x2="56.44" y2="144.29"/><line class="cls-7" x1="66.63" y1="62.51" x2="66.63" y2="144.29"/><line class="cls-7" x1="76.82" y1="62.51" x2="76.82" y2="144.29"/><line class="cls-7" x1="87.01" y1="62.51" x2="87.01" y2="144.29"/></g></g><g id="trolley"><circle class="cls-18" cx="76.74" cy="201.09" r="12.69"/><circle class="cls-18" cx="121.58" cy="201.09" r="12.69"/><circle class="cls-18" cx="211.26" cy="201.09" r="12.69"/><circle class="cls-18" cx="166.42" cy="201.09" r="12.69"/><rect class="cls-19" x="53.56" y="103.58" width="180.88" height="97.52" rx="8"/><path class="cls-20" d="M53.56,160.35H234.44a0,0,0,0,1,0,0v32.75a8,8,0,0,1-8,8H61.56a8,8,0,0,1-8-8V160.35A0,0,0,0,1,53.56,160.35Z"/><rect class="cls-21" x="61.39" y="118.23" width="53.43" height="36.76" rx="6.06"/><rect class="cls-21" x="131.12" y="118.23" width="53.43" height="36.76" rx="6.06"/><rect class="cls-21" x="200.84" y="118.23" width="33.6" height="36.76" rx="6.06"/><path class="cls-22" d="M173.24,95.49h25.33a6.82,6.82,0,0,1,6.82,6.82v1.26a0,0,0,0,1,0,0h-39a0,0,0,0,1,0,0v-1.26A6.82,6.82,0,0,1,173.24,95.49Z"/></g></svg>